<svg width="383" height="226" viewBox="0 0 383 226" fill="none" xmlns="http://www.w3.org/2000/svg">
<path d="M17.6243 134.005C17.7213 134.218 17.7392 134.43 17.678 134.641C17.6229 134.834 17.5196 135.03 17.3683 135.231C17.2169 135.431 17.0175 135.636 16.7699 135.844C16.5337 136.047 16.2834 136.249 16.019 136.452C15.8003 136.63 15.5655 136.899 15.3146 137.257C15.0637 137.615 14.8673 138.062 14.7255 138.597C14.5783 139.121 14.5307 139.738 14.5827 140.449C14.6408 141.142 14.8665 141.921 15.2598 142.786C15.6638 143.675 16.1149 144.354 16.6131 144.822C17.1173 145.272 17.6447 145.569 18.1952 145.714C18.7458 145.858 19.302 145.873 19.8639 145.76C20.4319 145.628 20.9789 145.419 21.5051 145.133C22.0999 144.81 22.6258 144.413 23.0826 143.943C23.5394 143.473 23.9386 142.923 24.2803 142.294C24.622 141.664 24.9149 140.943 25.1589 140.13C25.4029 139.318 25.6153 138.404 25.7961 137.389C26.0104 136.134 26.1671 134.8 26.2663 133.386C26.3715 131.954 26.4464 130.486 26.491 128.983C26.5303 127.469 26.5443 125.946 26.5331 124.415C26.5333 122.877 26.5271 121.372 26.5145 119.901C26.5134 118.423 26.5167 117.002 26.5243 115.638C26.5434 114.267 26.5885 113.001 26.6594 111.839C26.7371 110.629 26.8469 109.63 26.9886 108.844C27.1364 108.039 27.326 107.389 27.5574 106.893C27.7948 106.38 28.0807 105.973 28.4151 105.673C28.7441 105.361 29.1316 105.084 29.5777 104.841C30.8589 104.144 31.9147 103.925 32.7453 104.183C33.5758 104.441 34.247 105.133 34.7588 106.259C35.1521 107.124 35.4778 108.233 35.736 109.586C35.9941 110.939 36.2183 112.421 36.4086 114.033C36.5935 115.632 36.7656 117.298 36.925 119.03C37.0789 120.749 37.2484 122.409 37.4333 124.009C37.6181 125.608 37.837 127.079 38.0898 128.419C38.3371 129.749 38.6494 130.828 39.0265 131.658C39.436 132.559 39.954 133.149 40.5806 133.429C41.2073 133.709 41.9839 133.598 42.9104 133.094C43.6654 132.683 44.3082 132.104 44.839 131.358C45.3812 130.604 45.8311 129.68 46.1888 128.583C46.5526 127.469 46.8412 126.174 47.0548 124.697C47.2798 123.215 47.4583 121.536 47.5903 119.661L47.739 117.539L48.3559 117.625L48.2071 119.746C48.0664 121.76 47.8825 123.552 47.6556 125.125C47.4232 126.685 47.1046 128.056 46.6998 129.237C46.295 130.418 45.7842 131.413 45.1673 132.221C44.5673 133.035 43.8211 133.685 42.9289 134.17C42.2197 134.556 41.5451 134.782 40.9051 134.85C40.2651 134.917 39.6732 134.854 39.1294 134.662C38.5856 134.47 38.0979 134.166 37.6664 133.75C37.2409 133.316 36.8908 132.797 36.6161 132.192C36.379 131.671 36.1618 131.02 35.9643 130.241C35.7784 129.455 35.6055 128.588 35.4457 127.64C35.292 126.674 35.148 125.651 35.0137 124.571C34.8855 123.472 34.7607 122.35 34.6392 121.204L27.4156 125.132C27.4072 126.275 27.3819 127.412 27.3399 128.544C27.3093 129.669 27.2595 130.768 27.1905 131.841C27.1329 132.907 27.0508 133.935 26.9441 134.924C26.8434 135.895 26.7189 136.798 26.5704 137.633C26.3762 138.744 26.1339 139.733 25.8435 140.601C25.5591 141.45 25.2201 142.211 24.8266 142.884C24.4331 143.556 23.9824 144.134 23.4744 144.617C22.9665 145.1 22.3979 145.513 21.7688 145.855C20.2474 146.682 18.8504 146.873 17.5776 146.426C16.3109 145.962 15.2816 144.859 14.4896 143.116C14.064 142.18 13.7855 141.237 13.654 140.289C13.517 139.328 13.5201 138.425 13.6632 137.578C13.8063 136.732 14.083 135.975 14.4933 135.308C14.9036 134.642 15.4405 134.128 16.104 133.767C16.4357 133.587 16.7315 133.5 16.9912 133.506C17.2624 133.507 17.4735 133.673 17.6243 134.005ZM27.5285 111.632C27.4945 112.405 27.4668 113.27 27.4455 114.228C27.4357 115.179 27.4303 116.187 27.4293 117.252C27.4283 118.317 27.4263 119.427 27.4233 120.582C27.4263 121.719 27.4233 122.873 27.4142 124.046L34.5349 120.174C34.3952 118.831 34.2467 117.5 34.0895 116.181C33.9437 114.856 33.7795 113.6 33.5967 112.413C33.4254 111.22 33.2262 110.138 32.9991 109.167C32.7835 108.191 32.5302 107.382 32.2393 106.742C32.0507 106.327 31.8571 106.011 31.6585 105.794C31.4599 105.577 31.254 105.437 31.0406 105.376C30.8333 105.297 30.6159 105.289 30.3885 105.354C30.1671 105.4 29.9363 105.489 29.6961 105.619C29.3186 105.825 28.9966 106.074 28.7302 106.366C28.4753 106.653 28.2664 107.025 28.1037 107.483C27.941 107.941 27.8126 108.506 27.7186 109.178C27.6246 109.85 27.5612 110.668 27.5285 111.632Z" fill="#859B79"/>
<path d="M72.2728 52.6215L74.6724 50.9751L79.585 76.5933C79.6914 77.1346 79.8043 77.6872 79.9238 78.251C80.0367 78.8035 80.1657 79.345 80.3108 79.8755C80.4601 80.3873 80.6189 80.8769 80.7872 81.3442C80.9597 81.7929 81.1479 82.1914 81.3519 82.5397C81.806 83.3149 82.3612 83.8003 83.0175 83.9957C83.6846 84.1839 84.4315 83.9943 85.2582 83.4271C85.9776 82.9335 86.5747 82.2955 87.0495 81.5129C87.5351 80.723 87.9145 79.7775 88.1878 78.6765C88.4652 77.5569 88.6472 76.2744 88.7338 74.8289C88.8138 73.3723 88.8252 71.7342 88.7681 69.9149L88.6974 67.7898L89.3198 67.8117L89.3905 69.9368C89.4556 71.9239 89.441 73.6979 89.3468 75.2589C89.2568 76.8012 89.0561 78.1674 88.7447 79.3576C88.4375 80.5291 88.0122 81.5376 87.4688 82.3829C86.9253 83.2283 86.2349 83.9383 85.3974 84.5128C84.7425 84.9622 84.1002 85.2532 83.4705 85.386C82.8582 85.5226 82.2737 85.5141 81.7171 85.3604C81.1498 85.2141 80.6223 84.9303 80.1347 84.5088C79.647 84.0874 79.2091 83.5452 78.8208 82.8823C78.4786 82.2981 78.1712 81.6191 77.8987 80.8453C77.6195 80.0603 77.3871 79.1881 77.2015 78.2287L72.2728 52.6215Z" fill="#859B79"/>
<path d="M131 25.9151L133.8 25.1979L131.412 39.8865C131.326 40.4314 131.243 40.9891 131.161 41.5596C131.078 42.1173 131.013 42.6702 130.967 43.2182C130.931 43.7502 130.912 44.2646 130.91 44.7612C130.918 45.2418 130.958 45.6807 131.029 46.0779C131.19 46.962 131.544 47.6085 132.094 48.0175C132.655 48.4233 133.422 48.5018 134.393 48.253C135.238 48.0366 136.018 47.6425 136.733 47.0706C137.46 46.4955 138.142 45.7379 138.776 44.7977C139.421 43.8415 140.033 42.6995 140.611 41.3718C141.186 40.0312 141.759 38.4967 142.331 36.7684L142.994 34.7484L143.571 34.9827L142.908 37.0028C142.286 38.8914 141.663 40.5525 141.039 41.9861C140.424 43.4036 139.767 44.6178 139.065 45.6286C138.375 46.6234 137.629 47.4244 136.828 48.0317C136.027 48.639 135.135 49.0686 134.151 49.3206C133.382 49.5176 132.679 49.5704 132.042 49.4788C131.42 49.3967 130.874 49.188 130.404 48.8525C129.921 48.5203 129.523 48.0725 129.21 47.5092C128.897 46.9459 128.672 46.2863 128.535 45.5304C128.414 44.8641 128.364 44.1128 128.384 43.2765C128.391 42.4434 128.467 41.5524 128.612 40.6036L131 25.9151ZM131.601 20.4922C131.52 20.0438 131.602 19.6206 131.846 19.2228C132.104 18.8217 132.453 18.5647 132.895 18.4516C133.336 18.3385 133.737 18.4034 134.098 18.6462C134.469 18.8729 134.695 19.2105 134.776 19.6589C134.816 19.8767 134.81 20.0994 134.759 20.327C134.718 20.5386 134.635 20.7342 134.509 20.9139C134.396 21.0904 134.246 21.2493 134.061 21.3907C133.885 21.516 133.684 21.6078 133.457 21.6659C133.016 21.779 132.617 21.7269 132.261 21.5098C131.902 21.2798 131.682 20.9406 131.601 20.4922Z" fill="#859B79"/>
<path d="M223.339 28.5005C222.904 28.4208 222.589 28.2377 222.395 27.9513C222.216 27.6546 222.183 27.2919 222.293 26.8632C222.397 26.4598 222.591 26.1519 222.874 25.9396C223.156 25.7273 223.477 25.654 223.836 25.7196C223.964 25.743 224.079 25.7905 224.181 25.8621C224.239 25.899 224.279 25.9261 224.301 25.9434C224.327 25.9481 224.352 25.9528 224.378 25.9575C224.493 25.9786 224.572 25.9072 224.614 25.7433C224.657 25.5794 224.633 25.41 224.544 25.2353C224.458 25.048 224.321 24.8776 224.133 24.7243C223.948 24.5584 223.716 24.4169 223.437 24.3C223.175 24.1728 222.89 24.081 222.583 24.0248C221.789 23.8794 220.923 23.9587 219.987 24.2625C219.063 24.5687 218.114 25.0486 217.14 25.7023C216.183 26.3457 215.228 27.1348 214.276 28.0696C213.337 29.0068 212.461 30.0348 211.65 31.1537C210.841 32.2601 210.123 33.4293 209.497 34.6614C208.883 35.8958 208.417 37.1308 208.098 38.3664C207.858 39.2993 207.736 40.1089 207.733 40.795C207.743 41.4834 207.874 42.0685 208.125 42.5502C208.39 43.0342 208.784 43.4298 209.308 43.737C209.836 44.0317 210.503 44.2528 211.31 44.4005C212.501 44.6185 213.71 44.6352 214.938 44.4507C216.179 44.2685 217.421 43.9015 218.663 43.3499C219.921 42.788 221.166 42.0453 222.397 41.1219C223.643 40.1882 224.862 39.0778 226.053 37.7905L227.501 36.2335L227.927 36.6877L226.479 38.2448C223.821 41.1119 221.182 43.1244 218.563 44.2823C215.947 45.4275 213.326 45.7598 210.701 45.2793C208.318 44.8432 206.681 43.9099 205.79 42.4792C204.911 41.0508 204.769 39.183 205.365 36.8757C205.54 36.1949 205.772 35.5046 206.06 34.8047C206.348 34.1048 206.682 33.4068 207.063 32.7107C207.96 31.1056 209.01 29.6606 210.214 28.3757C211.43 27.0931 212.711 26.027 214.057 25.1775C215.415 24.3303 216.799 23.7253 218.207 23.3625C219.628 23.002 220.991 22.9413 222.298 23.1804C223.668 23.4312 224.621 23.9753 225.156 24.8126C225.376 25.1565 225.517 25.519 225.58 25.9002C225.646 26.2687 225.631 26.6358 225.537 27.0014C225.394 27.5562 225.12 27.9681 224.715 28.2373C224.323 28.5089 223.865 28.5966 223.339 28.5005Z" fill="#859B79"/>
<path d="M283.778 84.2933C281.459 83.869 279.825 82.9494 278.876 81.5346C277.93 80.1071 277.761 78.2145 278.369 75.8568C278.535 75.2138 278.762 74.5424 279.05 73.8425C279.325 73.1402 279.663 72.4296 280.063 71.7107C280.96 70.1056 282.01 68.6606 283.214 67.3757C284.43 66.0931 285.717 65.0282 287.076 64.181C288.435 63.3338 289.818 62.7288 291.226 62.366C292.634 62.0031 293.972 61.9377 295.24 62.1698C296.521 62.4042 297.45 62.8846 298.027 63.6107C298.617 64.3393 298.774 65.2394 298.497 66.3111C298.341 66.9162 298.067 67.4865 297.674 68.022C297.281 68.5574 296.787 69.0414 296.192 69.4739C295.598 69.9064 294.916 70.2898 294.145 70.6242C293.391 70.9482 292.568 71.2003 291.677 71.3805C290.57 71.6137 289.387 71.7273 288.128 71.7212C286.872 71.7026 285.476 71.5526 283.939 71.2713C283.304 72.2246 282.734 73.236 282.23 74.3057C281.742 75.3651 281.35 76.4684 281.054 77.6157C280.602 79.3682 280.646 80.7033 281.188 81.621C281.745 82.5283 282.83 83.1297 284.444 83.4251C285.789 83.6712 287.135 83.6535 288.482 83.3719C289.832 83.0777 291.133 82.6094 292.385 81.9672C293.637 81.325 294.829 80.5528 295.961 79.6508C297.095 78.7362 298.126 77.7828 299.053 76.7905L300.501 75.2335L300.927 75.6877L299.479 77.2448C298.33 78.4737 297.132 79.5814 295.885 80.5678C294.651 81.5566 293.367 82.3714 292.035 83.0122C290.719 83.6427 289.365 84.0815 287.973 84.3285C286.598 84.5653 285.199 84.5535 283.778 84.2933ZM295.583 63.0248C294.776 62.8771 293.89 62.9591 292.924 63.2709C291.971 63.585 290.997 64.0866 290.001 64.7758C289.008 65.4523 288.027 66.2895 287.059 67.2873C286.091 68.2852 285.186 69.4003 284.345 70.6327C285.76 70.8654 286.995 70.9659 288.049 70.9345C289.107 70.8904 290.051 70.7661 290.882 70.5616C291.539 70.4047 292.197 70.1686 292.855 69.8534C293.529 69.5278 294.148 69.1327 294.71 68.6679C295.286 68.2055 295.783 67.6825 296.202 67.099C296.633 66.5178 296.937 65.8868 297.113 65.206C297.2 64.8656 297.222 64.5725 297.178 64.3268C297.135 64.0811 297.041 63.8725 296.897 63.701C296.757 63.5169 296.573 63.3711 296.346 63.2635C296.119 63.1559 295.865 63.0763 295.583 63.0248Z" fill="#859B79"/>
<path d="M327.84 97.0367C327.411 96.9845 326.975 97.0104 326.533 97.1142C326.106 97.2078 325.708 97.3462 325.339 97.5295C324.986 97.7026 324.684 97.9113 324.433 98.1559C324.182 98.4004 324.026 98.6425 323.964 98.8821C323.918 99.0586 323.929 99.2255 323.996 99.383C324.213 99.4228 324.394 99.5021 324.538 99.6209C324.682 99.7396 324.787 99.8777 324.853 100.035C324.933 100.195 324.976 100.368 324.981 100.554C325 100.742 324.985 100.931 324.936 101.12C324.88 101.334 324.788 101.535 324.659 101.723C324.547 101.9 324.399 102.058 324.215 102.196C324.045 102.336 323.844 102.438 323.613 102.502C323.399 102.555 323.157 102.557 322.888 102.507C322.593 102.454 322.358 102.351 322.182 102.2C322.01 102.036 321.879 101.841 321.79 101.613C321.702 101.386 321.658 101.14 321.659 100.876C321.66 100.612 321.694 100.348 321.763 100.083C321.951 99.3521 322.279 98.7321 322.746 98.2234C323.228 97.7044 323.77 97.2951 324.37 96.9957C324.987 96.686 325.635 96.4878 326.314 96.4009C326.997 96.3014 327.64 96.3068 328.242 96.417L327.84 97.0367Z" fill="#859B79"/>
<path d="M334.067 154.139C334.233 153.496 334.468 152.872 334.771 152.267C335.078 151.65 335.425 151.086 335.811 150.576C336.198 150.066 336.606 149.626 337.037 149.256C337.471 148.873 337.9 148.588 338.324 148.402L349.427 138.274C349.832 137.278 350.287 136.504 350.792 135.949C351.297 135.395 351.793 135.162 352.28 135.251C352.664 135.321 352.958 135.481 353.162 135.729C353.366 135.978 353.431 136.247 353.356 136.537C353.301 136.752 353.201 136.931 353.056 137.076C352.911 137.222 352.683 137.378 352.372 137.545C352.015 137.731 351.707 137.912 351.447 138.089C351.199 138.268 350.984 138.453 350.801 138.644C350.617 138.835 350.469 139.046 350.356 139.276C350.243 139.506 350.151 139.76 350.079 140.037C350.007 140.314 349.952 140.608 349.912 140.918C349.885 141.229 349.869 141.629 349.864 142.117C349.859 142.604 349.87 143.214 349.896 143.945C349.934 144.678 349.984 145.605 350.043 146.725C350.103 147.845 350.086 148.898 349.993 149.884C349.912 150.873 349.755 151.821 349.52 152.729C348.626 156.196 346.673 158.591 343.662 159.915C342.77 160.306 341.844 160.566 340.886 160.694C339.943 160.812 339.024 160.789 338.127 160.625C337.282 160.471 336.552 160.205 335.939 159.829C335.328 159.44 334.853 158.97 334.512 158.419C334.162 157.853 333.944 157.212 333.861 156.497C333.78 155.77 333.849 154.983 334.067 154.139ZM348.961 139.614L339.56 148.212C339.97 148.287 340.262 148.479 340.437 148.789C340.612 149.098 340.643 149.473 340.529 149.915C340.47 150.142 340.381 150.356 340.262 150.559C340.146 150.749 340.011 150.909 339.856 151.039C339.702 151.169 339.535 151.271 339.355 151.344C339.179 151.404 339.007 151.419 338.841 151.388C338.623 151.348 338.449 151.27 338.318 151.154C338.187 151.037 338.006 150.958 337.776 150.916C337.507 150.867 337.232 150.915 336.953 151.062C336.664 151.194 336.394 151.409 336.143 151.706C335.879 152.001 335.644 152.368 335.437 152.805C335.221 153.228 335.044 153.704 334.908 154.233C334.726 154.939 334.664 155.595 334.722 156.199C334.768 156.802 334.931 157.34 335.211 157.814C335.482 158.273 335.852 158.657 336.322 158.968C336.804 159.281 337.385 159.499 338.064 159.623C338.96 159.787 339.842 159.751 340.708 159.513C341.574 159.276 342.388 158.85 343.15 158.237C344.982 156.75 346.35 154.254 347.255 150.749C347.365 150.321 347.461 149.896 347.543 149.475C347.641 149.044 347.723 148.597 347.789 148.134C347.871 147.66 347.941 147.152 348.001 146.608C348.061 146.065 348.126 145.449 348.196 144.762C348.306 143.607 348.414 142.644 348.519 141.871C348.625 141.098 348.738 140.478 348.858 140.012L348.961 139.614Z" fill="#859B79"/>
</svg>
