<svg width="266" height="210" viewBox="0 0 266 210" fill="none" xmlns="http://www.w3.org/2000/svg">
<path d="M19.6223 16.0537L25.213 17.0769L26.5473 15.103C28.1362 12.7399 29.8475 11.0198 31.6813 9.9427C33.5152 8.86558 35.3479 8.49463 37.1794 8.82986C37.7558 8.93534 38.2678 9.10828 38.7155 9.34865C39.1664 9.57642 39.5306 9.85433 39.8081 10.1824C40.0856 10.5104 40.2732 10.8749 40.371 11.2757C40.4849 11.6662 40.4865 12.0758 40.3759 12.5045C40.2197 13.1096 39.944 13.5543 39.5488 13.8385C39.1568 14.11 38.6919 14.1965 38.1539 14.0981C37.7184 14.0184 37.4035 13.8353 37.2092 13.5489C37.0309 13.2522 36.997 12.8895 37.1077 12.4608C37.2118 12.0574 37.4052 11.7495 37.688 11.5372C37.9708 11.3249 38.2915 11.2516 38.6502 11.3172C38.7654 11.3383 38.887 11.3869 39.0149 11.4632C39.0372 11.4805 39.066 11.4989 39.1012 11.5186C39.1363 11.5382 39.1667 11.5504 39.1924 11.5551C39.3076 11.5762 39.3848 11.5111 39.4238 11.3598C39.4726 11.1707 39.4317 10.9915 39.3009 10.8224C39.183 10.6555 39.0074 10.5046 38.774 10.3694C38.5567 10.224 38.3008 10.098 38.0064 9.99127C37.7249 9.88692 37.4432 9.80896 37.1614 9.75739C36.5466 9.64487 35.9441 9.66663 35.3539 9.82268C34.7637 9.97872 34.1601 10.2907 33.5431 10.7588C32.9293 11.2142 32.286 11.8358 31.6133 12.6237C30.9438 13.399 30.2287 14.3508 29.4681 15.4791L28.0372 17.5938L33.8393 18.6557L33.6441 19.4122L27.5731 18.3011L7.73308 47.7837L4.88968 47.2633L24.7297 17.7806L19.4271 16.8101L19.6223 16.0537Z" fill="#3B0C0C"/>
<path d="M64.688 60.8209C65.9877 59.4875 67.4143 58.3462 68.968 57.397C70.5336 56.4528 72.112 55.7302 73.7031 55.2292C75.3127 54.722 76.8853 54.4577 78.4208 54.4363C79.9684 54.4199 81.3679 54.6704 82.6193 55.1877C83.6301 55.6055 84.3834 56.1194 84.8792 56.7291C85.3935 57.3326 85.7039 57.9914 85.8104 58.7055C85.9169 59.4196 85.8538 60.1683 85.6213 60.9517C85.3888 61.735 85.0463 62.5148 84.5939 63.2911C84.1022 64.1348 83.5202 64.9412 82.848 65.7104C82.1878 66.4845 81.4965 67.1968 80.7739 67.8474C79.4304 69.051 77.9987 70.0855 76.479 70.951C74.9657 71.8052 73.448 72.4621 71.9259 72.9218C70.4157 73.3864 68.9509 73.6324 67.5313 73.6598C66.1182 73.676 64.8462 73.4503 63.715 72.9827C62.8607 72.6295 62.1725 72.1705 61.6505 71.6058C61.1471 71.0347 60.8181 70.3822 60.6635 69.6482C60.5089 68.9142 60.5314 68.1069 60.7311 67.2262C60.9374 66.3342 61.3257 65.3989 61.8961 64.4201C62.2567 63.8014 62.6719 63.1913 63.1419 62.5899C63.6184 61.9772 64.1338 61.3875 64.688 60.8209ZM64.4775 72.2509C65.3439 72.609 66.3567 72.7415 67.516 72.6484C68.6873 72.5602 69.9274 72.2771 71.2363 71.7991C72.5637 71.3148 73.9228 70.6482 75.3136 69.7991C76.7043 68.9501 78.0583 67.9463 79.3756 66.7877C79.7363 66.4762 80.1173 66.1171 80.5185 65.7106C80.9317 65.3091 81.3427 64.8857 81.7515 64.4404C82.1668 63.9839 82.5614 63.5118 82.9352 63.0242C83.3155 62.5253 83.6499 62.0284 83.9384 61.5334C84.2531 60.9934 84.4973 60.4591 84.6709 59.9306C84.8511 59.3909 84.9137 58.8863 84.8587 58.4168C84.8158 57.9524 84.6341 57.5212 84.3134 57.1235C84.0048 56.7306 83.5256 56.3999 82.8758 56.1313C81.9372 55.7433 80.8669 55.594 79.665 55.6835C78.4817 55.7667 77.2257 56.0642 75.8972 56.576C74.5872 57.0814 73.2511 57.7855 71.8888 58.6882C70.5266 59.5909 69.2065 60.6645 67.9286 61.9092C67.0705 62.7411 66.2753 63.606 65.543 64.5038C64.8293 65.3954 64.243 66.2349 63.7841 67.0224C62.2368 69.6773 62.4679 71.4202 64.4775 72.2509Z" fill="#3B0C0C"/>
<path d="M219.388 106.884C219.654 105.114 220.142 103.458 220.851 101.915C221.573 100.372 222.441 99.0189 223.453 97.8574C224.477 96.6819 225.619 95.7389 226.877 95.0284C228.148 94.3168 229.458 93.9089 230.808 93.8048C231.899 93.7206 232.834 93.8377 233.615 94.156C234.408 94.4604 235.065 94.9057 235.587 95.492C236.109 96.0783 236.511 96.7716 236.795 97.5721C237.078 98.3726 237.269 99.2194 237.366 100.113C237.471 101.083 237.48 102.062 237.39 103.048C237.314 104.032 237.175 104.977 236.972 105.88C236.591 107.554 236.035 109.118 235.302 110.571C234.569 112.011 233.712 113.278 232.731 114.372C231.763 115.465 230.7 116.343 229.542 117.006C228.382 117.657 227.192 118.03 225.972 118.124C225.05 118.195 224.202 118.097 223.426 117.831C222.663 117.55 221.994 117.119 221.42 116.537C220.846 115.954 220.374 115.227 220.005 114.355C219.633 113.47 219.387 112.464 219.264 111.338C219.187 110.626 219.16 109.897 219.183 109.151C219.206 108.393 219.274 107.637 219.388 106.884ZM226.158 117.13C227.093 117.058 228.012 116.72 228.915 116.115C229.831 115.509 230.685 114.699 231.478 113.685C232.283 112.657 233.003 111.453 233.638 110.073C234.273 108.692 234.784 107.191 235.171 105.568C235.28 105.129 235.377 104.639 235.462 104.097C235.56 103.554 235.643 102.993 235.711 102.414C235.778 101.821 235.818 101.224 235.831 100.623C235.842 100.008 235.817 99.4162 235.755 98.8467C235.688 98.2253 235.565 97.6409 235.388 97.0933C235.209 96.5327 234.954 96.0564 234.624 95.6642C234.306 95.271 233.894 94.97 233.387 94.7611C232.892 94.5512 232.295 94.4733 231.594 94.5274C230.581 94.6055 229.605 94.9549 228.664 95.5757C227.735 96.1826 226.876 97.0124 226.088 98.0653C225.31 99.1043 224.632 100.331 224.053 101.747C223.474 103.162 223.033 104.71 222.732 106.391C222.527 107.516 222.394 108.643 222.334 109.77C222.284 110.883 222.309 111.893 222.408 112.799C222.74 115.854 223.99 117.298 226.158 117.13Z" fill="#3B0C0C"/>
<path d="M100.771 97.1429L103.601 96.4625L102.806 121.2C102.791 121.723 102.781 122.259 102.776 122.808C102.766 123.343 102.775 123.875 102.802 124.401C102.839 124.913 102.89 125.407 102.956 125.885C103.031 126.347 103.133 126.769 103.262 127.152C103.551 128.002 104.009 128.626 104.636 129.022C105.276 129.415 106.083 129.494 107.058 129.26C107.906 129.056 108.662 128.681 109.326 128.134C110.002 127.585 110.605 126.86 111.135 125.959C111.673 125.043 112.151 123.947 112.568 122.674C112.981 121.387 113.365 119.915 113.72 118.256L114.13 116.316L114.762 116.545L114.351 118.484C113.967 120.297 113.548 121.891 113.097 123.266C112.655 124.626 112.139 125.791 111.55 126.759C110.969 127.712 110.305 128.479 109.557 129.059C108.809 129.639 107.941 130.048 106.953 130.285C106.181 130.471 105.458 130.518 104.783 130.427C104.126 130.345 103.53 130.141 102.995 129.817C102.448 129.495 101.973 129.062 101.569 128.519C101.166 127.976 100.841 127.34 100.595 126.613C100.377 125.972 100.217 125.257 100.114 124.468C100.007 123.667 99.9671 122.803 99.9952 121.876L100.771 97.1429Z" fill="#3B0C0C"/>
<path d="M163.866 125.905L166.753 125.756L162.772 139.649C162.627 140.165 162.483 140.694 162.339 141.236C162.195 141.764 162.07 142.292 161.965 142.819C161.872 143.332 161.798 143.832 161.741 144.317C161.698 144.788 161.69 145.225 161.719 145.628C161.785 146.524 162.071 147.226 162.578 147.734C163.098 148.242 163.858 148.47 164.859 148.418C165.731 148.373 166.556 148.142 167.335 147.723C168.126 147.304 168.891 146.698 169.63 145.904C170.38 145.096 171.117 144.1 171.84 142.915C172.562 141.718 173.303 140.33 174.062 138.753L174.946 136.908L175.5 137.251L174.616 139.096C173.789 140.82 172.984 142.322 172.203 143.6C171.434 144.865 170.643 145.923 169.83 146.773C169.03 147.61 168.195 148.246 167.326 148.682C166.457 149.118 165.516 149.362 164.501 149.414C163.708 149.455 162.997 149.368 162.368 149.153C161.753 148.95 161.227 148.638 160.792 148.218C160.344 147.798 159.993 147.281 159.74 146.669C159.486 146.056 159.331 145.367 159.276 144.601C159.226 143.925 159.257 143.181 159.368 142.367C159.465 141.554 159.638 140.697 159.885 139.798L163.866 125.905ZM165.055 120.721C165.022 120.267 165.15 119.869 165.438 119.528C165.739 119.187 166.118 119.004 166.573 118.981C167.028 118.957 167.423 119.1 167.759 119.408C168.107 119.703 168.297 120.078 168.33 120.532C168.347 120.753 168.317 120.97 168.241 121.182C168.177 121.381 168.072 121.556 167.927 121.707C167.794 121.857 167.627 121.983 167.425 122.085C167.236 122.173 167.024 122.223 166.79 122.235C166.335 122.258 165.941 122.129 165.607 121.846C165.272 121.551 165.088 121.176 165.055 120.721Z" fill="#3B0C0C"/>
</svg>
