<svg width="266" height="209" viewBox="0 0 266 209" fill="none" xmlns="http://www.w3.org/2000/svg">
<path d="M19.6595 16.0605L25.2486 17.0928L26.5779 15.1189C28.161 12.7559 29.8677 11.0367 31.6982 9.96125C33.5286 8.88578 35.3593 8.51714 37.1903 8.85532C37.7665 8.96174 38.2785 9.13558 38.7264 9.37683C39.1775 9.60546 39.542 9.88416 39.82 10.2129C40.0979 10.5417 40.2862 10.9067 40.3847 11.308C40.4993 11.6991 40.5017 12.1091 40.392 12.538C40.2372 13.1435 39.9626 13.5882 39.5682 13.872C39.1771 14.1433 38.7126 14.2292 38.1748 14.1299C37.7395 14.0495 37.4244 13.8658 37.2296 13.5788C37.0508 13.2816 37.0163 12.9185 37.1259 12.4896C37.2292 12.0859 37.4219 11.778 37.704 11.5659C37.9862 11.3538 38.3066 11.2809 38.6651 11.3471C38.7803 11.3684 38.9019 11.4173 39.0299 11.4938C39.0522 11.5111 39.081 11.5296 39.1162 11.5493C39.1514 11.569 39.1818 11.5813 39.2074 11.586C39.3227 11.6073 39.3996 11.5422 39.4383 11.3909C39.4867 11.2016 39.4454 11.0223 39.3144 10.8528C39.1963 10.6856 39.0204 10.5342 38.7869 10.3986C38.5695 10.2528 38.3135 10.1262 38.0191 10.019C37.7375 9.91417 37.4559 9.83573 37.1742 9.7837C36.5596 9.67018 35.9575 9.69109 35.368 9.84643C34.7786 10.0018 34.176 10.3132 33.5603 10.7808C32.9478 11.2357 32.3063 11.857 31.6355 12.6447C30.9681 13.4197 30.2554 14.3714 29.4976 15.4996L28.0719 17.6143L33.8723 18.6856L33.6787 19.4425L27.6095 18.3215L7.84235 47.8031L4.9998 47.2781L24.767 17.7965L19.466 16.8174L19.6595 16.0605Z" fill="#859B79"/>
<path d="M64.7871 61.2074C66.0802 59.872 67.5005 58.7294 69.048 57.7799C70.6075 56.8354 72.1803 56.1132 73.7662 55.6135C75.3707 55.1075 76.9388 54.8452 78.4706 54.8265C80.0145 54.8129 81.4113 55.0668 82.661 55.5882C83.6705 56.0093 84.4233 56.5262 84.9194 57.1389C85.4341 57.7454 85.7454 58.407 85.8535 59.1237C85.9615 59.8403 85.9005 60.5915 85.6705 61.377C85.4406 62.1626 85.1009 62.9444 84.6516 63.7224C84.1632 64.5681 83.5847 65.3761 82.9161 66.1466C82.2595 66.9221 81.5716 67.6356 80.8524 68.287C79.5152 69.4922 78.0896 70.5276 76.5757 71.3932C75.0683 72.2475 73.5559 72.9039 72.0386 73.3623C70.5332 73.8257 69.0725 74.0698 67.6564 74.0947C66.2468 74.1084 64.9771 73.8796 63.8475 73.4083C62.9943 73.0524 62.3066 72.5906 61.7844 72.023C61.2808 71.4491 60.9509 70.7938 60.7948 70.0571C60.6387 69.3203 60.6591 68.5103 60.8561 67.627C61.0595 66.7324 61.4445 65.7947 62.011 64.8137C62.3692 64.1935 62.7819 63.5821 63.2492 62.9795C63.723 62.3656 64.2356 61.775 64.7871 61.2074ZM64.6063 72.6755C65.4715 73.0364 66.4823 73.1712 67.6385 73.0799C68.8068 72.9936 70.0432 72.7118 71.3477 72.2346C72.6708 71.7511 74.0249 71.0847 75.4101 70.2353C76.7954 69.386 78.1436 68.3813 79.4547 67.2212C79.8138 66.9093 80.1929 66.5498 80.5921 66.1426C81.0033 65.7405 81.4122 65.3164 81.8189 64.8704C82.2321 64.4131 82.6245 63.9402 82.9962 63.4516C83.3743 62.9517 83.7067 62.4537 83.9932 61.9576C84.3057 61.4163 84.548 60.8807 84.7198 60.3508C84.8982 59.8095 84.9593 59.3033 84.9033 58.8322C84.8594 58.3661 84.6769 57.9332 84.356 57.5335C84.0471 57.1388 83.5682 56.8061 82.9193 56.5354C81.9819 56.1444 80.9139 55.9927 79.715 56.0802C78.5348 56.1615 77.2826 56.4577 75.9585 56.9688C74.653 57.4736 73.3219 58.1776 71.9652 59.0808C70.6085 59.984 69.2943 61.0588 68.0227 62.3054C67.1688 63.1385 66.3777 64.0048 65.6495 64.9043C64.9397 65.7976 64.357 66.6388 63.9011 67.4281C62.3644 70.0892 62.5994 71.8383 64.6063 72.6755Z" fill="#859B79"/>
<path d="M219.362 107.604C219.629 105.834 220.118 104.177 220.829 102.633C221.552 101.089 222.421 99.7351 223.435 98.5727C224.46 97.3963 225.602 96.4523 226.86 95.7407C228.132 95.0282 229.443 94.6194 230.793 94.5143C231.883 94.4294 232.818 94.5458 233.599 94.8636C234.391 95.1675 235.048 95.6124 235.569 96.1985C236.09 96.7845 236.492 97.4777 236.775 98.2782C237.057 99.0786 237.247 99.9254 237.343 100.819C237.448 101.79 237.455 102.768 237.365 103.754C237.288 104.739 237.148 105.684 236.944 106.587C236.561 108.262 236.004 109.826 235.27 111.28C234.535 112.721 233.677 113.989 232.695 115.084C231.727 116.177 230.663 117.056 229.504 117.721C228.344 118.373 227.154 118.746 225.933 118.841C225.012 118.913 224.163 118.816 223.389 118.55C222.625 118.27 221.957 117.839 221.384 117.257C220.811 116.675 220.339 115.948 219.971 115.076C219.6 114.191 219.354 113.185 219.233 112.059C219.156 111.347 219.13 110.618 219.154 109.872C219.177 109.113 219.246 108.357 219.362 107.604ZM226.121 117.847C227.055 117.775 227.974 117.435 228.878 116.83C229.794 116.223 230.649 115.413 231.443 114.398C232.249 113.369 232.97 112.164 233.606 110.783C234.243 109.402 234.755 107.9 235.143 106.277C235.253 105.838 235.351 105.347 235.436 104.805C235.535 104.262 235.618 103.701 235.687 103.121C235.754 102.529 235.794 101.931 235.808 101.33C235.82 100.715 235.796 100.123 235.734 99.5537C235.667 98.9323 235.545 98.3478 235.368 97.8002C235.19 97.2397 234.936 96.7634 234.606 96.3714C234.288 95.9783 233.876 95.6775 233.37 95.4689C232.876 95.2594 232.278 95.1819 231.577 95.2364C230.565 95.3153 229.588 95.6655 228.647 96.287C227.718 96.8946 226.858 97.7252 226.068 98.7788C225.29 99.8185 224.611 101.046 224.031 102.462C223.45 103.878 223.008 105.427 222.705 107.108C222.499 108.234 222.365 109.361 222.304 110.488C222.254 111.602 222.277 112.611 222.375 113.518C222.704 116.573 223.953 118.016 226.121 117.847Z" fill="#859B79"/>
<path d="M100.751 97.9808L103.579 97.2946L102.726 122.071C102.71 122.595 102.699 123.132 102.692 123.681C102.681 124.217 102.688 124.75 102.715 125.277C102.75 125.789 102.8 126.284 102.865 126.762C102.938 127.225 103.039 127.648 103.168 128.031C103.454 128.882 103.91 129.506 104.535 129.901C105.173 130.294 105.98 130.372 106.954 130.135C107.802 129.93 108.558 129.553 109.222 129.004C109.899 128.453 110.503 127.726 111.035 126.823C111.575 125.904 112.054 124.806 112.474 123.53C112.889 122.241 113.277 120.765 113.635 119.103L114.05 117.16L114.681 117.388L114.266 119.331C113.877 121.147 113.455 122.744 113.002 124.123C112.556 125.486 112.038 126.653 111.447 127.623C110.865 128.579 110.2 129.348 109.451 129.93C108.702 130.512 107.834 130.923 106.847 131.163C106.076 131.35 105.353 131.398 104.679 131.308C104.023 131.227 103.428 131.025 102.894 130.7C102.349 130.379 101.875 129.946 101.473 129.403C101.072 128.86 100.749 128.224 100.504 127.496C100.289 126.854 100.13 126.138 100.029 125.348C99.924 124.546 99.8865 123.681 99.9168 122.752L100.751 97.9808Z" fill="#859B79"/>
<path d="M168.426 124.551L171.313 124.4L167.323 138.296C167.178 138.812 167.033 139.341 166.889 139.883C166.745 140.412 166.62 140.94 166.514 141.467C166.421 141.98 166.346 142.479 166.29 142.965C166.245 143.436 166.238 143.873 166.267 144.276C166.331 145.172 166.617 145.874 167.123 146.382C167.643 146.89 168.403 147.117 169.405 147.065C170.276 147.02 171.101 146.788 171.88 146.369C172.672 145.95 173.437 145.343 174.176 144.548C174.927 143.74 175.665 142.743 176.388 141.558C177.111 140.361 177.853 138.973 178.613 137.395L179.498 135.55L180.052 135.892L179.167 137.737C178.338 139.462 177.533 140.964 176.751 142.243C175.981 143.509 175.189 144.567 174.376 145.418C173.575 146.255 172.74 146.891 171.871 147.328C171.002 147.764 170.06 148.009 169.046 148.061C168.253 148.103 167.542 148.016 166.913 147.801C166.298 147.599 165.773 147.287 165.338 146.866C164.89 146.447 164.539 145.93 164.286 145.318C164.033 144.705 163.879 144.016 163.824 143.25C163.775 142.574 163.806 141.83 163.917 141.016C164.015 140.202 164.188 139.346 164.436 138.447L168.426 124.551ZM169.618 119.366C169.585 118.911 169.713 118.513 170.002 118.172C170.304 117.831 170.682 117.648 171.137 117.624C171.592 117.601 171.988 117.743 172.323 118.051C172.671 118.346 172.861 118.721 172.894 119.175C172.91 119.396 172.88 119.613 172.803 119.825C172.74 120.024 172.635 120.199 172.489 120.35C172.356 120.5 172.189 120.627 171.988 120.728C171.798 120.816 171.586 120.867 171.352 120.879C170.897 120.902 170.503 120.773 170.169 120.491C169.835 120.195 169.651 119.82 169.618 119.366Z" fill="#859B79"/>
</svg>
