<svg width="260" height="177" viewBox="0 0 260 177" fill="none" xmlns="http://www.w3.org/2000/svg">
<path d="M12.8489 112.41L15.6896 111.875L15.5072 120.565C16.2044 117.633 17.1261 115.366 18.2725 113.764C19.4272 112.146 20.8427 111.18 22.519 110.864C23.2996 110.717 24.0219 110.732 24.686 110.908C25.3502 111.083 25.9493 111.383 26.4834 111.806C27.0175 112.228 27.4886 112.761 27.8968 113.404C28.3005 114.035 28.6408 114.736 28.9177 115.508C29.2122 116.329 29.4458 117.247 29.6183 118.261C29.7992 119.261 29.8969 120.276 29.9115 121.307C29.9446 123.342 29.6915 125.169 29.1521 126.788C28.6256 128.405 27.9131 129.808 27.0148 130.998C26.1248 132.173 25.1066 133.124 23.96 133.85C22.8091 134.564 21.6322 135.034 20.4293 135.26C19.7768 135.383 19.1874 135.416 18.6612 135.358C18.1477 135.297 17.6867 135.136 17.2782 134.872C16.8696 134.609 16.4984 134.241 16.1646 133.767C15.8308 133.293 15.5322 132.709 15.2689 132.012L14.988 146.255L12.1473 146.79L12.8489 112.41ZM22.1961 111.906C21.5179 112.034 20.8823 112.356 20.2892 112.874C19.7045 113.376 19.1681 114.014 18.6801 114.786C18.1921 115.558 17.7543 116.432 17.3666 117.408C16.9917 118.382 16.6686 119.404 16.3973 120.476C16.1259 121.547 15.9082 122.635 15.744 123.739C15.5926 124.84 15.5028 125.904 15.4746 126.93C15.4419 127.943 15.4685 128.893 15.5543 129.78C15.6529 130.664 15.8142 131.419 16.0384 132.044C16.1923 132.473 16.3885 132.868 16.6271 133.229C16.8614 133.577 17.1378 133.872 17.4565 134.113C17.7835 134.339 18.1419 134.5 18.5318 134.597C18.93 134.679 19.3659 134.676 19.8393 134.586C20.4535 134.471 21.1321 134.173 21.8752 133.693C22.6266 133.198 23.3329 132.463 23.9941 131.488C24.6681 130.511 25.2432 129.258 25.7193 127.729C26.2083 126.198 26.4952 124.331 26.5801 122.13C26.611 121.379 26.6122 120.639 26.5836 119.912C26.5549 119.185 26.5053 118.494 26.4347 117.84C26.3597 117.174 26.2616 116.558 26.1406 115.992C26.0324 115.423 25.9013 114.925 25.7475 114.496C25.409 113.552 24.9447 112.848 24.3546 112.383C23.7602 111.906 23.0406 111.747 22.1961 111.906Z" fill="#859B79"/>
<path d="M97.2462 107.491C97.0073 105.786 97.0227 104.156 97.2925 102.6C97.5749 101.041 98.0572 99.6409 98.7392 98.3994C99.4289 97.1431 100.302 96.0885 101.358 95.2357C102.427 94.38 103.623 93.8044 104.944 93.509C106.012 93.2703 106.981 93.2437 107.854 93.4292C108.733 93.5998 109.518 93.923 110.208 94.3985C110.897 94.8741 111.498 95.468 112.01 96.1801C112.522 96.8922 112.954 97.6615 113.306 98.4881C113.689 99.3866 113.976 100.306 114.168 101.247C114.373 102.186 114.503 103.095 114.558 103.975C114.654 105.606 114.543 107.16 114.225 108.635C113.902 110.098 113.405 111.416 112.736 112.589C112.079 113.759 111.266 114.741 110.296 115.535C109.321 116.318 108.236 116.842 107.041 117.109C106.139 117.311 105.262 117.343 104.41 117.206C103.566 117.053 102.774 116.745 102.033 116.281C101.293 115.816 100.613 115.201 99.9943 114.434C99.3703 113.655 98.8364 112.744 98.3925 111.702C98.1119 111.043 97.877 110.361 97.6879 109.656C97.4936 108.938 97.3464 108.216 97.2462 107.491ZM106.945 116.147C107.86 115.942 108.683 115.489 109.414 114.788C110.158 114.084 110.782 113.196 111.286 112.126C111.798 111.04 112.175 109.802 112.417 108.409C112.659 107.017 112.742 105.529 112.666 103.945C112.65 103.516 112.608 103.04 112.538 102.517C112.482 101.992 112.404 101.452 112.307 100.896C112.205 100.329 112.074 99.7608 111.916 99.1927C111.752 98.6126 111.558 98.059 111.334 97.5319C111.089 96.9569 110.799 96.4246 110.466 95.935C110.127 95.4335 109.736 95.0223 109.293 94.7015C108.863 94.3778 108.364 94.1547 107.797 94.0322C107.243 93.9069 106.623 93.9209 105.936 94.0743C104.945 94.2959 104.068 94.7677 103.303 95.4896C102.547 96.1967 101.924 97.1035 101.435 98.2099C100.954 99.3016 100.625 100.556 100.449 101.973C100.273 103.39 100.274 104.912 100.452 106.538C100.568 107.627 100.756 108.707 101.017 109.777C101.286 110.832 101.598 111.779 101.956 112.618C103.16 115.445 104.823 116.621 106.945 116.147Z" fill="#859B79"/>
<path d="M171.583 57.7721C171.441 57.6202 171.175 57.5289 170.787 57.4981C170.402 57.452 169.982 57.5413 169.527 57.766C169.06 57.9964 168.663 58.3656 168.337 58.8736C168.002 59.3721 167.761 60.0883 167.613 61.0222C167.466 61.9562 167.431 63.1468 167.509 64.5941C167.599 66.0357 167.835 67.8148 168.218 69.9314L168.519 71.616L172.191 80.6787L169.581 81.9662L161.298 61.3674L163.89 60.0885L167.245 68.4324C166.945 66.6222 166.769 65.0704 166.716 63.7773C166.654 62.4747 166.703 61.3811 166.863 60.4966C167.014 59.6027 167.276 58.8902 167.649 58.3592C168.021 57.8282 168.494 57.4215 169.066 57.1392C169.837 56.759 170.612 56.6473 171.392 56.8042C172.183 56.9554 172.86 57.3298 173.422 57.9276C173.653 58.1743 173.835 58.4317 173.968 58.6997C174.103 58.9525 174.17 59.197 174.17 59.4332C174.181 59.6636 174.127 59.8781 174.006 60.0767C173.885 60.2753 173.696 60.438 173.439 60.5647C173.252 60.6569 173.043 60.7253 172.811 60.7701C172.592 60.809 172.367 60.8157 172.138 60.7899C171.9 60.7547 171.667 60.6889 171.44 60.5927C171.224 60.4907 171.027 60.3448 170.849 60.155C170.706 60.0032 170.593 59.837 170.509 59.6564C170.427 59.4605 170.391 59.2768 170.401 59.1054C170.402 58.9244 170.448 58.7556 170.54 58.5991C170.633 58.4425 170.778 58.3153 170.976 58.2173C171.105 58.154 171.236 58.103 171.371 58.0643C171.412 58.0718 171.459 58.0764 171.512 58.0781C171.568 58.0645 171.607 58.052 171.63 58.0404C171.724 57.9944 171.708 57.9049 171.583 57.7721Z" fill="#859B79"/>
<path d="M210.499 24.9879L215.146 21.6805L212.539 17.5673L214.894 15.8909L217.5 20.0042L222.274 16.6062L222.903 17.0699L217.891 20.6378L224.446 31.0072C224.706 31.4143 224.977 31.8291 225.258 32.2517C225.55 32.6667 225.847 33.0703 226.15 33.4625C226.452 33.8394 226.76 34.1973 227.074 34.5361C227.387 34.8596 227.701 35.1373 228.016 35.3692C228.739 35.9024 229.511 36.1878 230.334 36.2253C231.166 36.2552 231.986 35.9832 232.792 35.4093C233.577 34.8505 234.194 34.1986 234.643 33.4537C235.092 32.7087 235.373 31.8554 235.487 30.8936C235.601 29.9319 235.552 28.8581 235.34 27.6721C235.118 26.4783 234.734 25.1571 234.187 23.7085L233.568 22.0531L234.297 21.9675L234.915 23.623C235.545 25.3015 235.97 26.7911 236.191 28.0918C236.401 29.3847 236.428 30.5348 236.272 31.542C236.127 32.5417 235.793 33.4251 235.269 34.1924C234.757 34.9521 234.076 35.634 233.228 36.2381C232.581 36.6987 231.908 37.0331 231.211 37.2411C230.524 37.4569 229.837 37.5505 229.152 37.5218C228.456 37.5007 227.772 37.365 227.1 37.1149C226.416 36.8723 225.765 36.523 225.147 36.0671C224.602 35.6652 224.069 35.1794 223.546 34.6096C223.024 34.0398 222.539 33.3978 222.091 32.6835L215.536 22.3141L211.128 25.4516L210.499 24.9879Z" fill="#859B79"/>
</svg>
