<svg width="311" height="244" viewBox="0 0 311 244" fill="none" xmlns="http://www.w3.org/2000/svg">
<path d="M13.034 126.947L15.855 126.316L15.2771 135.247C16.0978 132.216 17.1091 129.861 18.3111 128.182C19.522 126.488 20.9598 125.455 22.6244 125.082C23.3996 124.909 24.11 124.903 24.7557 125.065C25.4015 125.227 25.9775 125.517 26.484 125.936C26.9904 126.355 27.4297 126.889 27.802 127.538C28.1706 128.174 28.4735 128.885 28.7107 129.67C28.963 130.505 29.1508 131.441 29.2741 132.478C29.4064 133.5 29.4561 134.54 29.4232 135.598C29.3625 137.687 29.0296 139.572 28.4244 141.25C27.8319 142.926 27.0663 144.388 26.1274 145.636C25.1974 146.868 24.1514 147.874 22.9894 148.653C21.8237 149.419 20.6436 149.935 19.4491 150.202C18.801 150.347 18.2193 150.397 17.7039 150.353C17.2013 150.306 16.7549 150.153 16.3647 149.894C15.9745 149.635 15.626 149.267 15.3192 148.79C15.0123 148.313 14.7452 147.721 14.5178 147.013L13.5885 161.652L10.7675 162.282L13.034 126.947ZM22.2588 126.162C21.5853 126.313 20.9448 126.662 20.3372 127.21C19.7385 127.743 19.1813 128.413 18.6655 129.221C18.1497 130.028 17.6786 130.938 17.2523 131.952C16.8386 132.962 16.4736 134.022 16.1574 135.13C15.8412 136.239 15.5769 137.363 15.3647 138.501C15.1652 139.637 15.028 140.732 14.9532 141.786C14.8747 142.829 14.8573 143.804 14.9011 144.712C14.9576 145.618 15.0819 146.388 15.2739 147.024C15.4057 147.46 15.5808 147.86 15.7992 148.224C16.0138 148.575 16.2724 148.87 16.5751 149.108C16.8866 149.331 17.2321 149.487 17.6114 149.575C17.9997 149.648 18.4289 149.632 18.8991 149.527C19.5091 149.391 20.1908 149.065 20.9443 148.551C21.7067 148.021 22.4357 147.246 23.1313 146.226C23.8396 145.202 24.4631 143.899 25.0019 142.315C25.5535 140.728 25.9215 138.803 26.1059 136.539C26.1708 135.766 26.2059 135.007 26.211 134.26C26.2162 133.514 26.199 132.806 26.1594 132.136C26.1161 131.454 26.0478 130.824 25.9546 130.246C25.8741 129.665 25.768 129.157 25.6362 128.72C25.3462 127.761 24.9215 127.051 24.3619 126.59C23.7985 126.117 23.0975 125.975 22.2588 126.162Z" fill="#3B0C0C"/>
<path d="M81.7866 122.963C81.6379 121.204 81.7346 119.514 82.0766 117.893C82.4311 116.268 82.9734 114.802 83.7034 113.494C84.4415 112.171 85.3491 111.051 86.4261 110.134C87.5158 109.214 88.715 108.58 90.0238 108.233C91.081 107.952 92.032 107.894 92.8768 108.059C93.7299 108.209 94.4822 108.519 95.1337 108.991C95.7852 109.462 96.3438 110.059 96.8096 110.781C97.2754 111.503 97.6599 112.287 97.9633 113.132C98.2931 114.051 98.5284 114.996 98.6694 115.965C98.823 116.931 98.9045 117.869 98.914 118.779C98.9269 120.467 98.7406 122.081 98.3553 123.619C97.9655 125.145 97.4136 126.527 96.6994 127.763C95.9977 128.997 95.1522 130.04 94.1626 130.893C93.1687 131.734 92.0802 132.312 90.8972 132.626C90.0037 132.863 89.1433 132.923 88.316 132.807C87.4969 132.676 86.7365 132.381 86.0346 131.923C85.3328 131.465 84.698 130.848 84.1303 130.073C83.5583 129.285 83.081 128.358 82.6985 127.292C82.4567 126.617 82.2608 125.918 82.1109 125.192C81.9565 124.455 81.8484 123.712 81.7866 122.963ZM90.8506 131.631C91.7568 131.391 92.5853 130.896 93.3364 130.146C94.1 129.393 94.7555 128.454 95.3029 127.329C95.8585 126.188 96.2896 124.892 96.5963 123.442C96.9029 121.991 97.0586 120.446 97.0634 118.808C97.0693 118.363 97.0513 117.871 97.0095 117.332C96.9803 116.789 96.9318 116.232 96.8642 115.659C96.7922 115.074 96.6929 114.49 96.5661 113.906C96.435 113.31 96.2727 112.742 96.0792 112.203C95.8682 111.615 95.6115 111.072 95.3092 110.575C95.0025 110.066 94.6403 109.652 94.2228 109.333C93.8178 109.011 93.3407 108.795 92.7915 108.686C92.2549 108.574 91.6468 108.607 90.9672 108.788C89.9856 109.048 89.1026 109.565 88.3182 110.337C87.542 111.093 86.8868 112.052 86.3526 113.214C85.8265 114.36 85.442 115.671 85.1989 117.145C84.9557 118.618 84.8806 120.195 84.9733 121.876C85.0324 123.001 85.1629 124.114 85.3648 125.215C85.5749 126.3 85.8339 127.271 86.1416 128.129C87.1793 131.022 88.7489 132.189 90.8506 131.631Z" fill="#3B0C0C"/>
<path d="M145.283 73.4946C145.154 73.3312 144.906 73.237 144.541 73.2118C144.179 73.1699 143.779 73.2772 143.341 73.5339C142.891 73.7971 142.503 74.211 142.177 74.7755C141.843 75.3298 141.59 76.1209 141.417 77.1487C141.244 78.1765 141.168 79.4834 141.19 81.0693C141.224 82.6487 141.383 84.595 141.668 86.9083L141.892 88.7495L145.035 98.609L142.524 100.08L135.439 77.6685L137.934 76.2076L140.803 85.2857C140.585 83.3066 140.474 81.6084 140.47 80.191C140.458 78.7634 140.544 77.5627 140.727 76.5889C140.902 75.6049 141.175 74.8174 141.546 74.2266C141.917 73.6358 142.377 73.1791 142.928 72.8567C143.669 72.4223 144.406 72.2825 145.137 72.4372C145.879 72.5853 146.504 72.9809 147.013 73.6241C147.224 73.8895 147.386 74.1678 147.502 74.4589C147.62 74.7332 147.675 74.9999 147.666 75.259C147.669 75.5115 147.609 75.7481 147.488 75.9686C147.367 76.1892 147.182 76.3718 146.935 76.5166C146.755 76.6219 146.555 76.7016 146.335 76.7559C146.126 76.8036 145.914 76.8158 145.698 76.7927C145.475 76.7594 145.257 76.6924 145.046 76.592C144.846 76.4849 144.665 76.3292 144.504 76.1251C144.374 75.9617 144.273 75.7819 144.2 75.5857C144.13 75.3726 144.103 75.1719 144.118 74.9836C144.126 74.7851 144.176 74.5989 144.268 74.4251C144.361 74.2513 144.503 74.1085 144.694 73.9966C144.817 73.9242 144.943 73.8653 145.072 73.82C145.11 73.8272 145.155 73.8312 145.205 73.8319C145.258 73.8157 145.295 73.8011 145.318 73.7879C145.408 73.7353 145.396 73.6375 145.283 73.4946Z" fill="#3B0C0C"/>
<path d="M175.704 42.7638L180.06 39.0826L177.627 34.5141L179.835 32.6483L182.268 37.2168L186.743 33.4347L187.331 33.9493L182.632 37.9205L188.75 49.4375C188.993 49.8897 189.246 50.3505 189.508 50.8198C189.781 51.2807 190.058 51.7289 190.341 52.1645C190.623 52.583 190.911 52.9804 191.204 53.3566C191.497 53.7158 191.79 54.024 192.084 54.2814C192.76 54.8732 193.483 55.1894 194.253 55.2301C195.032 55.2624 195.8 54.9592 196.556 54.3205C197.292 53.6985 197.871 52.9733 198.292 52.1448C198.714 51.3164 198.979 50.3676 199.087 49.2986C199.195 48.2296 199.151 47.0362 198.956 45.7183C198.75 44.3918 198.393 42.9239 197.884 41.3146L197.307 39.4754L197.989 39.3794L198.566 41.2187C199.152 43.0834 199.547 44.7385 199.751 46.1838C199.946 47.6206 199.969 48.8988 199.821 50.0183C199.683 51.1295 199.369 52.1118 198.878 52.9651C198.396 53.8101 197.758 54.5687 196.962 55.2411C196.356 55.7538 195.726 56.1261 195.072 56.3582C194.428 56.5988 193.786 56.7036 193.144 56.6725C192.493 56.6498 191.853 56.4999 191.223 56.2226C190.584 55.9538 189.975 55.5664 189.397 55.0603C188.888 54.6143 188.389 54.075 187.901 53.4423C187.413 52.8097 186.96 52.0967 186.543 51.3033L180.424 39.7863L176.292 43.2784L175.704 42.7638Z" fill="#3B0C0C"/>
</svg>
