<svg width="389" height="196" viewBox="0 0 389 196" fill="none" xmlns="http://www.w3.org/2000/svg">
<path d="M167.539 54.3949C164.994 57.9025 162.37 61.2969 159.669 64.5781C156.967 67.8027 154.24 70.688 151.487 73.2338C148.785 75.723 146.084 77.7313 143.382 79.2588C140.681 80.7297 138.083 81.4651 135.59 81.4651C133.876 81.4651 132.499 81.2388 131.46 80.7863C130.473 80.3902 129.694 79.9094 129.122 79.3436C128.603 78.7213 128.239 78.099 128.031 77.4767C127.875 76.7979 127.797 76.2038 127.797 75.6947C127.797 74.7329 128.057 73.9126 128.577 73.2338C129.096 72.5549 129.823 72.2154 130.759 72.2154C131.59 72.2154 132.239 72.5266 132.707 73.1489C133.174 73.7712 133.408 74.5067 133.408 75.3552C133.408 75.8644 133.278 76.3736 133.018 76.8827C132.759 77.3919 132.395 77.703 131.927 77.8162C132.395 78.6082 133.044 79.1456 133.876 79.4285C134.707 79.6548 135.564 79.7679 136.447 79.7679C138.681 79.7679 141.019 79.0608 143.46 77.6465C145.954 76.2321 148.448 74.3935 150.941 72.1306C153.487 69.8111 156.006 67.2087 158.5 64.3235C160.993 61.3817 163.383 58.3833 165.669 55.3284C166.656 53.9707 167.877 52.3017 169.331 50.3217C170.838 48.3416 172.526 46.1919 174.397 43.8724C176.267 41.5529 178.293 39.2051 180.475 36.829C182.709 34.3964 185.072 32.1052 187.566 29.9554C190.06 27.8056 192.657 25.8822 195.358 24.185C198.06 22.4878 200.813 21.2149 203.619 20.3663L203.852 20.7057C202.086 22.4595 200.242 24.6375 198.32 27.2399C196.397 29.8423 194.501 32.6709 192.631 35.7259C190.813 38.7242 189.073 41.8923 187.41 45.2301C185.748 48.5679 184.267 51.9057 182.968 55.2435C181.722 58.5248 180.709 61.6929 179.929 64.7478C179.202 67.8027 178.838 70.6031 178.838 73.1489C178.838 74.9027 179.098 76.4018 179.618 77.6465C180.189 78.8345 181.306 79.4285 182.968 79.4285C183.955 79.4285 185.072 79.0325 186.319 78.2405C187.618 77.4484 188.969 76.4018 190.371 75.1007C191.774 73.7995 193.151 72.3569 194.501 70.7728C195.904 69.1888 197.229 67.633 198.475 66.1056C199.722 64.5215 200.839 63.0506 201.826 61.6929C202.813 60.2785 203.593 59.1471 204.164 58.2985L204.709 58.5531C202.943 60.9857 201.073 63.5598 199.099 66.2753C197.125 68.9908 195.125 71.48 193.099 73.7429C191.073 75.9493 189.021 77.7879 186.943 79.2588C184.917 80.7297 182.968 81.4651 181.098 81.4651C179.851 81.4651 178.786 81.2388 177.903 80.7863C177.072 80.2771 176.371 79.5982 175.799 78.7496C175.228 77.901 174.812 76.9393 174.552 75.8644C174.293 74.7895 174.163 73.6581 174.163 72.47C174.163 69.2454 174.578 66.1621 175.41 63.2203C176.241 60.222 177.176 57.2802 178.215 54.3949H167.539ZM178.605 53.3766C180.942 48.1153 183.696 42.9672 186.865 37.9322C190.086 32.8972 193.878 28.1168 198.242 23.5909L198.086 23.4212C195.333 24.8921 192.631 26.7025 189.982 28.8522C187.384 31.002 184.839 33.3781 182.345 35.9804C179.851 38.5828 177.41 41.3549 175.02 44.2967C172.682 47.2385 170.396 50.2651 168.163 53.3766H178.605Z" fill="black"/>
<path d="M259.803 38.4414C258.036 40.2517 255.802 42.4863 253.101 45.1453C250.452 47.7476 247.698 50.4631 244.841 53.2918C242.036 56.1204 239.36 58.8925 236.815 61.608C234.269 64.3235 232.217 66.6713 230.659 68.6513C230.087 70.292 229.334 71.7063 228.399 72.8943C227.464 74.0823 226.554 74.6764 225.671 74.6764C224.996 74.6764 224.658 74.3652 224.658 73.7429C224.658 73.3469 224.762 73.0075 224.97 72.7246C225.178 72.4417 225.386 72.1589 225.593 71.876C225.853 71.5931 226.061 71.2537 226.217 70.8577C226.425 70.5182 226.528 70.0939 226.528 69.5848C226.528 67.7745 226.243 66.1621 225.671 64.7478C225.1 63.3901 224.295 62.2303 223.256 61.2686C222.269 60.3068 221.074 59.5997 219.671 59.1471C218.32 58.6379 216.866 58.3833 215.307 58.3833C214.788 58.3833 214.034 58.5531 213.047 58.8925C212.112 59.1754 211.047 59.5431 209.853 59.9957C208.658 60.4483 207.411 60.8443 206.112 61.1837C204.761 61.5797 203.489 61.7777 202.294 61.7777C201.67 61.7777 201.151 61.6646 200.735 61.4383C200.268 61.212 200.034 60.8726 200.034 60.42C200.034 59.9674 200.346 59.5997 200.969 59.3168C201.592 58.9774 202.398 58.6945 203.385 58.4682C204.372 58.2419 205.463 58.0722 206.658 57.959C207.8 57.8459 208.943 57.761 210.086 57.7045C211.229 57.5913 212.268 57.5347 213.203 57.5347C214.138 57.4782 214.84 57.4216 215.307 57.365C217.905 56.4599 220.294 54.8475 222.476 52.528C224.658 50.152 226.762 47.3516 228.788 44.1269C230.814 40.9023 232.84 37.3948 234.866 33.6044C236.893 29.7574 239.022 25.9104 241.256 22.0635C239.646 21.7806 238.113 21.2997 236.659 20.6209C235.204 19.8854 233.905 18.952 232.763 17.8205C231.672 16.689 230.788 15.3879 230.113 13.917C229.49 12.3895 229.178 10.7206 229.178 8.91024C229.178 7.72221 229.386 6.59075 229.801 5.51587C230.269 4.38441 230.866 3.42266 231.594 2.63064C232.321 1.83862 233.204 1.21632 234.243 0.763736C235.282 0.254579 236.373 0 237.516 0C238.503 0 239.438 0.141432 240.321 0.424297C241.256 0.65059 242.036 0.933454 242.659 1.27289L242.347 2.20634C241.724 1.86691 240.997 1.58404 240.165 1.35775C239.334 1.13146 238.425 1.01831 237.438 1.01831C236.347 1.01831 235.334 1.2446 234.399 1.69719C233.516 2.14977 232.763 2.77208 232.139 3.5641C231.516 4.29955 231.022 5.14814 230.659 6.10988C230.295 7.01505 230.113 7.94851 230.113 8.91024C230.113 10.4943 230.425 11.9935 231.048 13.4078C231.724 14.8221 232.607 16.095 233.698 17.2265C234.789 18.3014 236.035 19.1782 237.438 19.8571C238.893 20.536 240.399 20.932 241.958 21.0452C243.412 18.6125 245.153 16.1516 247.179 13.6624C249.257 11.1732 251.516 8.91025 253.958 6.87362C256.4 4.83699 258.971 3.19637 261.673 1.95177C264.374 0.65059 267.128 0 269.933 0C271.907 0 273.465 0.480869 274.608 1.44261C275.803 2.40435 276.401 3.90354 276.401 5.94016C276.401 7.80707 275.725 9.73056 274.375 11.7106C273.024 13.6907 271.154 15.5293 268.764 17.2265C266.426 18.8671 263.647 20.2248 260.426 21.2997C257.205 22.318 253.75 22.8272 250.062 22.8272C249.179 22.8272 248.425 22.8272 247.802 22.8272C247.179 22.7706 246.529 22.7141 245.854 22.6575C243.932 25.9387 241.984 29.3331 240.01 32.8406C238.087 36.2916 235.957 39.6011 233.62 42.7692C231.334 45.8807 228.788 48.7376 225.983 51.34C223.23 53.9424 220.061 56.0073 216.476 57.5347L216.632 57.7045C217.048 57.6479 217.489 57.5913 217.957 57.5347C218.476 57.4782 219.074 57.4499 219.749 57.4499C223.282 57.4499 225.905 58.3833 227.619 60.2502C229.386 62.1172 230.451 64.4084 230.814 67.1239C232.892 64.5781 235.126 62.0606 237.516 59.5714C239.906 57.0822 242.347 54.6212 244.841 52.1886C247.335 49.756 249.802 47.3516 252.244 44.9755C254.737 42.5429 257.127 40.1951 259.413 37.9322L259.803 38.4414ZM269.076 1.01831C266.738 1.01831 264.426 1.72547 262.14 3.1398C259.854 4.49755 257.725 6.22303 255.75 8.31623C253.776 10.3529 251.958 12.5875 250.296 15.0201C248.685 17.3962 247.335 19.6025 246.244 21.6392C246.815 21.6957 247.412 21.7523 248.036 21.8089C248.659 21.8089 249.387 21.8089 250.218 21.8089C252.555 21.8089 255.075 21.4695 257.776 20.7906C260.53 20.1117 263.075 19.1217 265.413 17.8205C267.803 16.4627 269.777 14.8221 271.335 12.8986C272.946 10.9186 273.751 8.62738 273.751 6.02502C273.751 4.38441 273.336 3.1398 272.504 2.2912C271.725 1.44261 270.582 1.01831 269.076 1.01831Z" fill="black"/>
<path d="M246.4 110.572C244.789 114.475 242.841 117.87 240.555 120.755C238.269 123.64 235.724 126.016 232.918 127.883C230.113 129.75 227.074 131.136 223.801 132.041C220.528 132.947 217.126 133.399 213.593 133.399C212.502 133.399 211.593 133.427 210.866 133.484C210.138 133.597 209.541 133.682 209.073 133.739C208.606 133.852 208.216 133.937 207.905 133.993C207.593 134.05 207.281 134.078 206.969 134.078C206.502 134.078 206.112 133.993 205.801 133.823C205.489 133.71 205.333 133.484 205.333 133.145C205.333 132.692 205.541 132.437 205.956 132.381C206.424 132.268 206.788 132.211 207.047 132.211C207.775 132.211 208.476 132.268 209.151 132.381C209.827 132.494 210.528 132.607 211.255 132.72C214.372 131.08 217.022 128.732 219.204 125.677C221.386 122.565 223.334 119.114 225.048 115.324C226.762 111.477 228.347 107.46 229.801 103.274C231.308 99.0876 232.944 95.1275 234.711 91.3937C236.529 87.6033 238.607 84.2089 240.945 81.2106C243.283 78.1556 246.14 75.8644 249.517 74.3369L249.361 74.1672C247.127 74.5632 244.737 75.6381 242.192 77.3919C239.646 79.1456 237.075 81.352 234.477 84.0109C231.931 86.6133 229.386 89.5551 226.84 92.8363C224.347 96.061 221.957 99.3988 219.671 102.85C217.905 105.565 216.087 108.337 214.216 111.166C212.398 113.995 210.502 116.767 208.528 119.482C206.554 122.141 204.45 124.715 202.216 127.204C199.982 129.694 197.54 131.985 194.891 134.078L194.346 133.229C196.164 130.118 197.618 126.78 198.709 123.216C199.852 119.652 200.891 116.031 201.826 112.354C202.813 108.677 203.8 105.028 204.788 101.407C205.775 97.7864 207.021 94.3355 208.528 91.0543C210.086 87.773 212.009 84.7464 214.294 81.9743C216.58 79.2022 219.463 76.8544 222.944 74.931L222.788 74.7612C219.36 76.0058 216.217 77.8162 213.359 80.1922C210.502 82.5117 207.853 85.1707 205.411 88.169C202.969 91.1108 200.709 94.3072 198.631 97.7582C196.553 101.153 194.553 104.547 192.631 107.941C190.709 111.336 188.865 114.617 187.098 117.785C185.332 120.953 183.514 123.753 181.644 126.186C179.774 128.562 177.773 130.486 175.643 131.957C173.514 133.371 171.124 134.078 168.474 134.078C167.799 134.078 167.124 134.021 166.448 133.908C165.825 133.795 165.227 133.569 164.656 133.229C164.137 132.89 163.695 132.437 163.331 131.872C163.02 131.306 162.864 130.57 162.864 129.665C162.864 128.817 163.124 128.11 163.643 127.544C164.163 126.978 164.812 126.695 165.591 126.695C166.267 126.695 166.812 126.978 167.228 127.544C167.643 128.11 167.851 128.76 167.851 129.496C167.851 129.948 167.747 130.429 167.539 130.938C167.383 131.447 167.098 131.759 166.682 131.872C166.734 132.211 167.046 132.494 167.617 132.72C168.189 132.947 168.734 133.06 169.254 133.06C171.539 133.06 173.669 132.296 175.643 130.769C177.618 129.184 179.54 127.12 181.41 124.574C183.332 121.971 185.228 119.03 187.098 115.748C188.969 112.411 190.917 108.96 192.943 105.396C195.333 101.266 197.722 97.3904 200.112 93.7698C202.502 90.1491 205.073 86.9244 207.827 84.0958C210.58 81.2106 213.593 78.7779 216.866 76.7979C220.191 74.8178 223.957 73.3752 228.165 72.47L228.243 73.2338C225.022 74.3086 222.347 76.0341 220.217 78.4102C218.087 80.7297 216.243 83.4735 214.684 86.6416C213.177 89.8097 211.853 93.2606 210.71 96.9944C209.619 100.728 208.476 104.519 207.281 108.366C206.138 112.156 204.865 115.89 203.463 119.567C202.06 123.244 200.294 126.639 198.164 129.75L198.32 129.92C200.242 128.11 202.164 125.988 204.086 123.555C206.06 121.066 207.982 118.492 209.853 115.833C211.723 113.118 213.515 110.431 215.229 107.772C216.996 105.056 218.632 102.567 220.139 100.304C224.191 94.2506 227.905 89.3854 231.282 85.7081C234.659 82.0309 237.776 79.2022 240.633 77.2222C243.49 75.1855 246.088 73.8278 248.426 73.1489C250.815 72.47 253.023 72.1306 255.049 72.1306C255.828 72.1306 256.582 72.272 257.309 72.5549C258.036 72.7812 258.4 73.1772 258.4 73.7429C258.4 74.1955 258.244 74.4784 257.932 74.5915C257.621 74.7047 257.257 74.7612 256.842 74.7612C256.114 74.7612 255.335 74.6764 254.504 74.5067C253.725 74.2804 252.945 74.1672 252.166 74.1672C250.971 74.1672 249.75 74.7329 248.504 75.8644C247.309 76.9959 246.088 78.4668 244.841 80.2771C243.646 82.0874 242.477 84.1241 241.334 86.387C240.192 88.5933 239.127 90.7997 238.139 93.006C237.204 95.1558 236.373 97.1641 235.646 99.031C234.971 100.898 234.425 102.369 234.009 103.444C233.178 105.876 232.217 108.479 231.126 111.251C230.035 113.966 228.685 116.654 227.074 119.312C225.464 121.915 223.49 124.376 221.152 126.695C218.866 129.015 216.061 130.967 212.736 132.551V132.72C220.632 132.72 227.308 130.853 232.763 127.12C238.269 123.386 242.607 117.813 245.776 110.402L246.4 110.572Z" fill="black"/>
<path d="M21.3792 57.2253C21.2914 57.2837 21.2024 57.3043 21.1123 57.2869C21.03 57.2715 20.945 57.2333 20.8573 57.1723C20.7695 57.1114 20.6791 57.0277 20.5859 56.9212C20.4957 56.8199 20.405 56.7118 20.3138 56.597C20.2342 56.5026 20.1162 56.4056 19.9599 56.306C19.8037 56.2064 19.6112 56.1379 19.3826 56.1004C19.1589 56.0597 18.8978 56.0718 18.5993 56.1369C18.3087 56.2037 17.9852 56.3556 17.6289 56.5923C17.2629 56.8355 16.9866 57.0893 16.7998 57.3537C16.6209 57.6199 16.5069 57.8886 16.4579 58.1597C16.4088 58.4308 16.4142 58.6973 16.4739 58.9592C16.5414 59.2231 16.641 59.4725 16.7727 59.7077C16.9217 59.9735 17.1001 60.2022 17.3079 60.3938C17.5157 60.5854 17.7558 60.745 18.0283 60.8726C18.3007 61.0002 18.6107 61.0994 18.9584 61.17C19.306 61.2406 19.6956 61.2904 20.1271 61.3194C20.6604 61.3508 21.226 61.3502 21.8239 61.3177C22.4295 61.287 23.0494 61.2399 23.6835 61.1763C24.3225 61.1094 24.9645 61.0301 25.6095 60.9381C26.2574 60.8514 26.8912 60.7634 27.511 60.6742C28.1336 60.5902 28.7324 60.5114 29.3074 60.438C29.8853 60.3697 30.4198 60.3196 30.911 60.2878C31.4226 60.2566 31.8456 60.2525 32.1801 60.2758C32.5223 60.3009 32.8003 60.3547 33.0139 60.4372C33.2353 60.5216 33.4128 60.6351 33.5464 60.7779C33.6848 60.9174 33.8099 61.0868 33.9216 61.2861C34.2424 61.8586 34.3573 62.3505 34.2663 62.7617C34.1752 63.173 33.8979 63.5326 33.4343 63.8407C33.078 64.0774 32.6177 64.2957 32.0532 64.4954C31.4887 64.6952 30.8689 64.886 30.194 65.068C29.5239 65.2466 28.8258 65.423 28.0995 65.5969C27.3781 65.7677 26.6823 65.9424 26.0123 66.1211C25.3422 66.2998 24.7274 66.4874 24.1678 66.6839C23.613 66.8771 23.1649 67.0873 22.8232 67.3143C22.4524 67.5607 22.2145 67.8415 22.1098 68.1566C22.0051 68.4717 22.0688 68.8363 22.3008 69.2503C22.4898 69.5877 22.7473 69.862 23.0733 70.0733C23.4022 70.2897 23.8014 70.4523 24.271 70.5612C24.7482 70.6719 25.3002 70.7366 25.9267 70.7552C26.5561 70.7789 27.2674 70.7692 28.0604 70.7263L28.9572 70.6775L28.9342 70.9769L28.0373 71.0257C27.186 71.0723 26.4268 71.0858 25.7595 71.0662C25.097 71.0434 24.5127 70.9687 24.0065 70.8422C23.5002 70.7156 23.0702 70.5278 22.7164 70.2789C22.3606 70.0383 22.071 69.7187 21.8476 69.32C21.67 69.0031 21.5602 68.6937 21.5183 68.3918C21.4764 68.09 21.4902 67.8038 21.5596 67.5332C21.629 67.2626 21.7467 67.0125 21.9127 66.7829C22.0865 66.5552 22.2978 66.3586 22.5467 66.1933C22.7614 66.0506 23.0309 65.9101 23.3553 65.7717C23.6824 65.6385 24.044 65.5069 24.4401 65.377C24.8439 65.249 25.2719 65.1224 25.7241 64.9973C26.1841 64.874 26.6543 64.7509 27.1347 64.6281L25.3259 61.4002C24.8442 61.4608 24.3644 61.513 23.8867 61.5568C23.4119 61.6058 22.9478 61.6441 22.4945 61.6718C22.044 61.7045 21.6092 61.7234 21.19 61.7284C20.7786 61.7352 20.3955 61.7267 20.0406 61.703C19.5684 61.673 19.1465 61.6132 18.7747 61.5235C18.4108 61.4357 18.0829 61.3168 17.7913 61.1669C17.4997 61.0169 17.2467 60.8343 17.0323 60.619C16.8179 60.4037 16.6319 60.1555 16.4744 59.8744C16.0934 59.1945 15.9834 58.5381 16.1444 57.905C16.3131 57.2738 16.7561 56.7198 17.4735 56.2431C17.859 55.9869 18.2502 55.8006 18.6471 55.6842C19.0489 55.5646 19.4296 55.515 19.7894 55.5355C20.1491 55.556 20.4738 55.6454 20.7634 55.8037C21.053 55.962 21.2809 56.1893 21.447 56.4858C21.5301 56.634 21.573 56.7704 21.5757 56.8948C21.5814 57.0244 21.5159 57.1345 21.3792 57.2253ZM31.0165 60.6912C30.6903 60.7186 30.3252 60.7543 29.9212 60.7983C29.5201 60.8474 29.0951 60.9017 28.6464 60.9614C28.1976 61.0211 27.7299 61.0829 27.2433 61.1467C26.7644 61.2124 26.2778 61.2762 25.7834 61.3382L27.5664 64.5201C28.1294 64.3775 28.6871 64.2314 29.2395 64.0818C29.7948 63.9372 30.3205 63.7878 30.8167 63.6335C31.3158 63.4842 31.7673 63.328 32.1714 63.1647C32.5784 63.0065 32.9136 62.8398 33.1772 62.6647C33.348 62.5512 33.477 62.4409 33.5643 62.3338C33.6516 62.2267 33.706 62.1204 33.7273 62.015C33.7564 61.9115 33.7549 61.8073 33.7228 61.7023C33.6986 61.5992 33.6563 61.494 33.5962 61.3866C33.5017 61.218 33.3899 61.0783 33.2609 60.9676C33.1348 60.862 32.9735 60.7833 32.777 60.7315C32.5805 60.6796 32.3397 60.6503 32.0545 60.6433C31.7694 60.6364 31.4234 60.6524 31.0165 60.6912Z" fill="black"/>
<path d="M43.7263 83.7882L44.4938 84.8493L34.0059 88.6872C33.7844 88.7695 33.5584 88.8557 33.328 88.9456C33.102 89.0317 32.8812 89.125 32.6655 89.2253C32.4578 89.3267 32.2596 89.4313 32.071 89.5392C31.8903 89.648 31.731 89.7616 31.5931 89.8798C31.2862 90.1431 31.1034 90.4383 31.0447 90.7657C30.9894 91.0977 31.094 91.4466 31.3584 91.8121C31.5885 92.1302 31.8745 92.3811 32.2164 92.5648C32.5617 92.7533 32.9681 92.8817 33.4355 92.9501C33.9108 93.0193 34.4506 93.0333 35.0549 92.9919C35.6636 92.9468 36.3454 92.8581 37.1002 92.7261L37.9818 92.5699L37.9942 92.8709L37.1126 93.0271C36.2882 93.1726 35.5497 93.2676 34.8971 93.3119C34.2524 93.3571 33.6772 93.339 33.1713 93.2574C32.6734 93.1768 32.2392 93.0299 31.8689 92.8167C31.4985 92.6036 31.1794 92.3119 30.9115 91.9416C30.7021 91.652 30.5589 91.3593 30.482 91.0637C30.4041 90.7767 30.3875 90.4947 30.4323 90.2178C30.4736 89.9362 30.5735 89.6658 30.732 89.4068C30.8906 89.1477 31.101 88.9056 31.3634 88.6805C31.5947 88.4822 31.8666 88.2951 32.1791 88.1194C32.496 87.9398 32.8508 87.7778 33.2436 87.6333L43.7263 83.7882Z" fill="black"/>
<path d="M49.9944 97.53L50.8382 98.5199L45.0576 101.188C44.8437 101.288 44.6257 101.392 44.4035 101.501C44.1855 101.605 43.9731 101.716 43.7665 101.834C43.5678 101.951 43.3789 102.072 43.1998 102.195C43.0287 102.318 42.8792 102.444 42.7515 102.573C42.4672 102.861 42.309 103.17 42.2769 103.501C42.2486 103.837 42.3808 104.177 42.6734 104.52C42.9281 104.819 43.2331 105.046 43.5882 105.202C43.9472 105.362 44.3621 105.457 44.833 105.487C45.3118 105.518 45.8503 105.488 46.4486 105.398C47.051 105.304 47.7227 105.16 48.4636 104.968L49.3287 104.741L49.3652 105.04L48.5001 105.267C47.6911 105.479 46.9635 105.633 46.3173 105.73C45.6791 105.828 45.1049 105.856 44.5948 105.815C44.0925 105.775 43.6485 105.664 43.2626 105.481C42.8767 105.298 42.5355 105.033 42.239 104.685C42.0071 104.413 41.841 104.133 41.7406 103.844C41.6399 103.564 41.6007 103.284 41.623 103.004C41.6414 102.72 41.7191 102.442 41.8561 102.171C41.9931 101.9 42.1831 101.641 42.4262 101.395C42.6405 101.179 42.9001 100.97 43.205 100.77C43.5061 100.565 43.8424 100.375 44.2138 100.198L49.9944 97.53ZM52.0699 96.428C52.2141 96.2822 52.3834 96.2107 52.5776 96.2136C52.7757 96.2209 52.9412 96.3026 53.0743 96.4587C53.2073 96.6147 53.2679 96.7984 53.2561 97.0095C53.2523 97.221 53.1782 97.3996 53.034 97.5454C52.964 97.6162 52.8827 97.6693 52.7901 97.7048C52.7055 97.7405 52.6177 97.7545 52.5268 97.7468C52.4397 97.7436 52.3512 97.7209 52.2616 97.6787C52.1798 97.6368 52.1048 97.5757 52.0363 97.4955C51.9033 97.3394 51.8385 97.16 51.8421 96.9571C51.8498 96.7501 51.9257 96.5738 52.0699 96.428Z" fill="black"/>
<path d="M65.2461 110.95C65.1019 110.812 65.0224 110.66 65.0074 110.492C65.0004 110.324 65.0593 110.162 65.1842 110.007C65.3017 109.861 65.4333 109.777 65.5788 109.754C65.7243 109.732 65.8564 109.777 65.9751 109.89C66.0175 109.931 66.0504 109.978 66.0739 110.033C66.0877 110.062 66.0971 110.083 66.1019 110.096C66.1104 110.104 66.1188 110.112 66.1273 110.12C66.1655 110.157 66.2084 110.145 66.2562 110.086C66.3039 110.027 66.3286 109.949 66.3303 109.854C66.3357 109.754 66.3189 109.65 66.2799 109.54C66.2446 109.425 66.1874 109.31 66.1082 109.194C66.037 109.078 65.9506 108.971 65.8488 108.874C65.586 108.623 65.2529 108.451 64.8493 108.356C64.45 108.265 64.0075 108.243 63.5217 108.287C63.0439 108.332 62.5383 108.438 62.0051 108.607C61.4761 108.781 60.9526 109.007 60.4346 109.288C59.9203 109.564 59.4271 109.888 58.9549 110.26C58.4869 110.637 58.0729 111.049 57.7129 111.496C57.4411 111.834 57.2372 112.148 57.1013 112.438C56.9696 112.732 56.9025 113.011 56.8999 113.275C56.9016 113.543 56.9685 113.804 57.1004 114.059C57.2361 114.31 57.4374 114.563 57.7044 114.817C58.0987 115.194 58.5392 115.489 59.0261 115.704C59.5172 115.922 60.045 116.063 60.6093 116.125C61.1815 116.187 61.7843 116.169 62.4175 116.071C63.0587 115.973 63.7243 115.793 64.4144 115.531L65.252 115.217L65.319 115.511L64.4814 115.825C62.9422 116.406 61.5781 116.63 60.3893 116.496C59.2041 116.358 58.1771 115.874 57.3081 115.045C56.5197 114.292 56.1026 113.507 56.0568 112.688C56.0153 111.874 56.3307 111.049 57.0029 110.213C57.2013 109.967 57.4222 109.73 57.6655 109.502C57.9088 109.274 58.1687 109.058 58.4454 108.854C59.0902 108.388 59.7598 108.026 60.4541 107.769C61.1527 107.516 61.8324 107.369 62.4934 107.33C63.1586 107.295 63.7852 107.369 64.3733 107.551C64.9656 107.737 65.4779 108.036 65.9103 108.448C66.3638 108.881 66.6064 109.339 66.6381 109.821C66.6511 110.019 66.6316 110.206 66.5796 110.383C66.5313 110.554 66.4538 110.706 66.3473 110.839C66.1857 111.04 66.0041 111.149 65.8026 111.166C65.6054 111.188 65.4199 111.116 65.2461 110.95Z" fill="black"/>
<path d="M78.5883 131.385C77.7328 130.758 77.2182 130.041 77.0446 129.233C76.874 128.42 77.0766 127.547 77.6526 126.615C77.8097 126.361 77.9949 126.105 78.2082 125.849C78.4169 125.589 78.6514 125.337 78.9118 125.094C79.4947 124.55 80.1153 124.107 80.7736 123.764C81.4366 123.424 82.0969 123.195 82.7542 123.076C83.4116 122.956 84.0443 122.949 84.6522 123.054C85.2601 123.159 85.7981 123.383 86.266 123.726C86.7386 124.073 87.0372 124.462 87.1619 124.893C87.2913 125.328 87.2251 125.758 86.9633 126.181C86.8154 126.421 86.6258 126.622 86.3943 126.786C86.1628 126.949 85.8989 127.071 85.6024 127.15C85.306 127.23 84.9818 127.271 84.6299 127.274C84.2858 127.275 83.9248 127.232 83.547 127.143C83.0767 127.038 82.5932 126.864 82.0966 126.624C81.603 126.378 81.0727 126.047 80.5055 125.632C80.119 125.935 79.75 126.276 79.3986 126.656C79.0551 127.034 78.7431 127.45 78.4629 127.904C78.0348 128.597 77.8623 129.198 77.9455 129.708C78.0365 130.216 78.3797 130.689 78.9752 131.125C79.4715 131.489 80.0057 131.735 80.5779 131.865C81.1532 131.99 81.7339 132.028 82.32 131.979C82.9061 131.931 83.4869 131.813 84.0623 131.627C84.6407 131.435 85.1836 131.206 85.691 130.941L86.4846 130.523L86.5883 130.806L85.7946 131.223C85.1659 131.552 84.5349 131.817 83.9018 132.02C83.2735 132.225 82.6505 132.345 82.033 132.377C81.4232 132.408 80.8259 132.347 80.2409 132.194C79.6638 132.039 79.1129 131.769 78.5883 131.385ZM86.2797 124.171C85.9819 123.953 85.6201 123.821 85.1942 123.777C84.773 123.737 84.3166 123.775 83.8251 123.893C83.3366 124.006 82.83 124.192 82.3054 124.452C81.7808 124.712 81.2646 125.036 80.7569 125.425C81.283 125.796 81.7565 126.074 82.1775 126.259C82.6016 126.44 82.9923 126.563 83.3496 126.629C83.6317 126.684 83.9252 126.703 84.23 126.688C84.5427 126.671 84.8433 126.612 85.1317 126.512C85.4248 126.416 85.6956 126.277 85.9441 126.097C86.1974 125.921 86.4072 125.698 86.5735 125.429C86.6566 125.294 86.707 125.168 86.7247 125.051C86.7423 124.933 86.735 124.823 86.7027 124.72C86.6735 124.611 86.6217 124.512 86.5473 124.421C86.4728 124.33 86.3837 124.247 86.2797 124.171Z" fill="black"/>
<path d="M130.379 149.591C130.813 149.41 131.219 149.2 131.599 148.963C131.986 148.723 132.33 148.47 132.632 148.206C132.94 147.944 133.199 147.677 133.411 147.406C133.622 147.134 133.775 146.869 133.87 146.61C133.91 146.5 133.938 146.388 133.955 146.274C133.972 146.16 133.965 146.052 133.934 145.949C133.91 145.843 133.858 145.747 133.777 145.662C133.704 145.572 133.595 145.496 133.45 145.433C133.143 145.301 132.792 145.273 132.396 145.35C132.006 145.429 131.591 145.61 131.152 145.891C130.812 146.107 130.475 146.372 130.142 146.687C129.817 146.998 129.486 147.34 129.151 147.711C128.816 148.082 128.477 148.474 128.133 148.886C127.79 149.298 127.433 149.711 127.064 150.124C126.547 150.704 126.051 151.225 125.577 151.689C125.107 152.155 124.65 152.562 124.205 152.911C123.765 153.262 123.336 153.558 122.919 153.797C122.508 154.034 122.102 154.218 121.699 154.349C121.929 154.538 122.184 154.741 122.466 154.959C122.755 155.174 123.06 155.389 123.379 155.604C123.699 155.819 124.029 156.025 124.367 156.223C124.706 156.421 125.05 156.596 125.4 156.747C126.018 157.015 126.587 157.17 127.108 157.21C127.629 157.251 128.139 157.192 128.64 157.033C129.142 156.868 129.652 156.614 130.17 156.271C130.695 155.925 131.266 155.497 131.882 154.986L132.571 154.405L132.731 154.656L132.034 155.234C131.186 155.937 130.413 156.482 129.718 156.869C129.024 157.251 128.384 157.512 127.797 157.652C127.217 157.79 126.678 157.824 126.18 157.755C125.688 157.688 125.216 157.557 124.764 157.361C124.458 157.228 124.14 157.059 123.811 156.852C123.487 156.648 123.159 156.42 122.828 156.168C122.5 155.924 122.169 155.662 121.835 155.383C121.5 155.105 121.172 154.828 120.848 154.554C120.362 154.624 119.884 154.621 119.413 154.544C118.941 154.473 118.458 154.331 117.963 154.116C117.624 153.97 117.357 153.825 117.16 153.682C116.966 153.547 116.822 153.414 116.726 153.284C116.631 153.153 116.577 153.028 116.565 152.908C116.558 152.79 116.572 152.682 116.609 152.583C116.681 152.384 116.801 152.252 116.969 152.184C117.137 152.117 117.327 152.091 117.539 152.106C117.754 152.116 117.978 152.159 118.212 152.235C118.448 152.306 118.668 152.385 118.872 152.474C119.318 152.667 119.726 152.888 120.096 153.138C120.473 153.384 120.814 153.628 121.118 153.868C121.357 153.742 121.606 153.582 121.863 153.388C122.127 153.196 122.407 152.967 122.703 152.7C123.007 152.43 123.332 152.121 123.677 151.774C124.024 151.421 124.402 151.026 124.81 150.591C125.45 149.913 126.033 149.282 126.557 148.7C127.089 148.114 127.588 147.591 128.055 147.131C128.523 146.67 128.971 146.271 129.399 145.934C129.835 145.594 130.28 145.331 130.734 145.145C131.239 144.938 131.726 144.833 132.194 144.832C132.661 144.83 133.083 144.911 133.459 145.074C133.712 145.184 133.909 145.31 134.049 145.454C134.195 145.6 134.293 145.758 134.344 145.926C134.402 146.092 134.419 146.265 134.396 146.446C134.379 146.63 134.335 146.818 134.265 147.011C134.027 147.66 133.585 148.231 132.939 148.722C132.3 149.21 131.482 149.614 130.487 149.935L130.379 149.591ZM118.08 153.823C118.526 154.016 118.931 154.144 119.294 154.206C119.658 154.268 120.025 154.252 120.396 154.157C120.238 154.025 120.07 153.889 119.892 153.747C119.72 153.603 119.538 153.463 119.344 153.328C119.153 153.188 118.954 153.057 118.749 152.937C118.552 152.813 118.351 152.707 118.146 152.618C117.829 152.481 117.563 152.416 117.348 152.425C117.141 152.431 117.002 152.53 116.931 152.722C116.905 152.794 116.896 152.87 116.904 152.95C116.92 153.027 116.967 153.111 117.045 153.202C117.126 153.288 117.247 153.382 117.409 153.484C117.577 153.589 117.8 153.702 118.08 153.823Z" fill="black"/>
<path d="M146.941 155.153L148.185 155.532L144.511 160.838C144.376 161.036 144.239 161.239 144.101 161.447C143.964 161.651 143.836 161.856 143.716 162.065C143.603 162.269 143.5 162.47 143.407 162.668C143.321 162.862 143.255 163.047 143.21 163.223C143.109 163.615 143.13 163.957 143.272 164.252C143.42 164.547 143.71 164.761 144.141 164.892C144.517 165.007 144.899 165.035 145.289 164.976C145.685 164.919 146.095 164.778 146.522 164.553C146.955 164.323 147.41 164.012 147.886 163.619C148.363 163.219 148.875 162.742 149.423 162.187L150.061 161.536L150.247 161.767L149.608 162.417C149.011 163.025 148.456 163.541 147.942 163.966C147.435 164.387 146.948 164.716 146.482 164.954C146.024 165.187 145.579 165.33 145.148 165.383C144.718 165.435 144.284 165.395 143.847 165.262C143.505 165.158 143.216 165.012 142.98 164.824C142.749 164.643 142.571 164.43 142.447 164.184C142.317 163.936 142.242 163.663 142.222 163.363C142.202 163.063 142.236 162.746 142.321 162.411C142.397 162.116 142.517 161.803 142.68 161.474C142.838 161.142 143.033 160.804 143.267 160.459L146.941 155.153ZM148.186 153.127C148.237 152.929 148.348 152.779 148.519 152.678C148.695 152.579 148.882 152.559 149.078 152.619C149.274 152.678 149.421 152.8 149.519 152.983C149.624 153.161 149.652 153.35 149.601 153.549C149.576 153.645 149.532 153.733 149.47 153.812C149.414 153.887 149.345 153.945 149.261 153.987C149.184 154.031 149.095 154.059 148.995 154.071C148.902 154.08 148.805 154.068 148.704 154.038C148.508 153.978 148.36 153.862 148.259 153.691C148.159 153.514 148.135 153.326 148.186 153.127Z" fill="black"/>
<path d="M184.767 163.793C184.826 163.667 184.896 163.489 184.978 163.259C185.066 163.03 185.148 162.779 185.226 162.508C185.31 162.231 185.383 161.945 185.444 161.649C185.512 161.348 185.552 161.066 185.565 160.802C185.574 160.627 185.567 160.462 185.546 160.308C185.53 160.155 185.492 160.023 185.433 159.914C185.374 159.799 185.294 159.706 185.192 159.636C185.095 159.566 184.971 159.526 184.819 159.517C184.562 159.502 184.286 159.571 183.991 159.724C183.702 159.872 183.4 160.109 183.084 160.437C182.769 160.765 182.443 161.186 182.107 161.701C181.777 162.21 181.445 162.815 181.111 163.518L180.882 163.346C181.243 162.569 181.601 161.912 181.956 161.375C182.317 160.838 182.672 160.407 183.023 160.082C183.379 159.75 183.728 159.515 184.069 159.377C184.416 159.239 184.757 159.179 185.09 159.199C185.412 159.217 185.675 159.294 185.879 159.43C186.09 159.565 186.251 159.745 186.363 159.968C186.476 160.186 186.548 160.44 186.581 160.73C186.62 161.014 186.631 161.316 186.615 161.638C186.607 161.808 186.586 161.998 186.552 162.207C186.519 162.41 186.473 162.622 186.415 162.842C186.783 162.282 187.13 161.789 187.456 161.362C187.788 160.935 188.113 160.581 188.432 160.301C188.751 160.02 189.069 159.813 189.387 159.679C189.71 159.545 190.05 159.488 190.407 159.509C190.729 159.528 191.03 159.598 191.312 159.721C191.599 159.843 191.846 160.013 192.052 160.23C192.259 160.442 192.416 160.704 192.524 161.015C192.638 161.327 192.685 161.679 192.666 162.071C192.656 162.264 192.632 162.45 192.594 162.63C192.556 162.81 192.503 162.992 192.435 163.176C192.803 162.616 193.15 162.126 193.476 161.704C193.807 161.278 194.13 160.927 194.443 160.652C194.761 160.371 195.08 160.164 195.397 160.03C195.72 159.896 196.061 159.839 196.417 159.86C196.733 159.879 197.029 159.949 197.305 160.071C197.586 160.193 197.827 160.362 198.027 160.579C198.234 160.791 198.391 161.053 198.499 161.364C198.613 161.676 198.66 162.028 198.641 162.42C198.619 162.871 198.512 163.36 198.322 163.889C198.138 164.412 197.911 164.963 197.642 165.54C197.374 166.111 197.084 166.696 196.773 167.294C196.468 167.892 196.18 168.489 195.91 169.083C195.641 169.678 195.409 170.263 195.217 170.839C195.03 171.409 194.924 171.951 194.899 172.466C194.878 172.882 194.956 173.221 195.13 173.484C195.305 173.746 195.6 173.89 196.016 173.914C196.402 173.936 196.778 173.867 197.143 173.707C197.509 173.546 197.876 173.298 198.245 172.961C198.614 172.619 198.993 172.189 199.382 171.672C199.777 171.155 200.194 170.551 200.632 169.861L201.128 169.08L201.357 169.261L200.861 170.042C200.384 170.794 199.935 171.446 199.515 171.997C199.095 172.547 198.683 173.001 198.278 173.359C197.879 173.712 197.477 173.967 197.07 174.125C196.663 174.289 196.231 174.358 195.775 174.331C195.366 174.307 195.02 174.237 194.738 174.121C194.457 174.005 194.229 173.851 194.057 173.659C193.885 173.461 193.764 173.231 193.695 172.968C193.626 172.7 193.6 172.405 193.616 172.083C193.635 171.68 193.703 171.255 193.819 170.81C193.935 170.365 194.081 169.907 194.256 169.436C194.438 168.965 194.637 168.49 194.854 168.009C195.078 167.523 195.304 167.044 195.533 166.57C195.767 166.096 195.992 165.634 196.208 165.183C196.43 164.732 196.627 164.304 196.799 163.897C196.978 163.491 197.122 163.115 197.233 162.769C197.344 162.418 197.407 162.104 197.42 161.829C197.445 161.332 197.343 160.956 197.115 160.702C196.893 160.443 196.589 160.302 196.203 160.279C195.876 160.26 195.552 160.335 195.233 160.504C194.92 160.674 194.596 160.934 194.262 161.284C193.928 161.628 193.575 162.06 193.204 162.578C192.838 163.091 192.442 163.684 192.016 164.357L191.835 164.646L188.097 173.539L186.798 173.464L189.799 166.314C190.005 165.827 190.204 165.352 190.397 164.888C190.596 164.424 190.773 163.985 190.929 163.572C191.084 163.158 191.211 162.775 191.311 162.423C191.416 162.071 191.475 161.758 191.489 161.483C191.514 160.985 191.404 160.592 191.16 160.302C190.922 160.012 190.601 159.855 190.198 159.832C189.87 159.812 189.546 159.893 189.227 160.074C188.913 160.255 188.588 160.524 188.254 160.88C187.92 161.236 187.57 161.676 187.204 162.201C186.844 162.72 186.451 163.31 186.025 163.972L182.131 173.191L180.832 173.115L184.767 163.793Z" fill="black"/>
<path d="M216.947 168.62C217.095 167.966 217.289 167.365 217.529 166.818C217.769 166.265 218.038 165.768 218.336 165.326C218.64 164.884 218.964 164.495 219.307 164.16C219.657 163.824 220.009 163.541 220.363 163.311C220.722 163.075 221.078 162.889 221.43 162.753C221.787 162.617 222.126 162.531 222.446 162.493C222.778 162.455 223.059 162.475 223.291 162.554C223.522 162.627 223.713 162.749 223.865 162.92C224.023 163.085 224.144 163.295 224.228 163.551C224.311 163.8 224.368 164.083 224.399 164.398L224.915 162.373L226.207 162.223L224.584 168.605C224.524 168.842 224.466 169.085 224.408 169.333C224.349 169.576 224.3 169.818 224.258 170.059C224.223 170.293 224.195 170.52 224.175 170.741C224.161 170.955 224.163 171.152 224.181 171.333C224.22 171.735 224.357 172.044 224.59 172.258C224.829 172.472 225.172 172.553 225.62 172.501C226.01 172.455 226.38 172.33 226.731 172.123C227.081 171.912 227.417 171.616 227.739 171.236C228.066 170.85 228.384 170.379 228.695 169.824C229.004 169.263 229.317 168.613 229.633 167.875L229.999 167.018L230.251 167.157L229.876 168.014C229.526 168.822 229.183 169.525 228.848 170.125C228.518 170.718 228.178 171.217 227.83 171.624C227.481 172.024 227.114 172.335 226.729 172.557C226.344 172.773 225.925 172.908 225.471 172.961C225.116 173.002 224.796 172.983 224.512 172.904C224.234 172.831 223.992 172.705 223.786 172.529C223.586 172.352 223.426 172.129 223.305 171.86C223.185 171.59 223.108 171.284 223.074 170.94C223.051 170.712 223.048 170.465 223.063 170.198C223.077 169.925 223.111 169.641 223.164 169.346C222.528 170.717 221.869 171.768 221.187 172.496C220.505 173.218 219.779 173.624 219.011 173.714C218.65 173.756 218.335 173.728 218.067 173.63C217.803 173.525 217.579 173.365 217.393 173.151C217.206 172.931 217.06 172.668 216.953 172.362C216.846 172.05 216.774 171.704 216.736 171.325C216.696 170.917 216.695 170.484 216.732 170.025C216.769 169.561 216.84 169.092 216.947 168.62ZM219.282 173.24C219.597 173.203 219.909 173.084 220.218 172.883C220.528 172.676 220.828 172.411 221.12 172.088C221.418 171.758 221.699 171.383 221.963 170.963C222.228 170.537 222.472 170.09 222.697 169.621C222.927 169.146 223.132 168.662 223.313 168.169C223.494 167.676 223.644 167.196 223.763 166.728C223.887 166.253 223.973 165.807 224.02 165.388C224.072 164.964 224.082 164.588 224.05 164.261C224.021 163.964 223.959 163.721 223.864 163.531C223.774 163.335 223.662 163.183 223.527 163.075C223.398 162.96 223.253 162.886 223.09 162.852C222.934 162.817 222.774 162.809 222.611 162.828C222.285 162.866 221.932 163.01 221.55 163.261C221.174 163.506 220.8 163.859 220.427 164.321C220.054 164.778 219.698 165.344 219.358 166.021C219.024 166.691 218.732 167.468 218.484 168.352C218.279 169.09 218.137 169.767 218.056 170.384C217.982 171 217.964 171.509 218.004 171.912C218.048 172.367 218.174 172.715 218.38 172.956C218.592 173.191 218.892 173.286 219.282 173.24Z" fill="black"/>
<path d="M240.632 157.984L241.889 157.649L241.069 164.229C241.04 164.473 241.012 164.722 240.985 164.978C240.957 165.228 240.938 165.475 240.927 165.72C240.92 165.958 240.921 166.188 240.929 166.411C240.941 166.625 240.967 166.821 241.006 166.999C241.095 167.393 241.27 167.68 241.532 167.858C241.794 168.037 242.141 168.069 242.571 167.955C242.95 167.854 243.3 167.673 243.619 167.412C243.939 167.152 244.234 166.81 244.505 166.386C244.781 165.956 245.037 165.442 245.276 164.845C245.514 164.249 245.744 163.561 245.965 162.781L246.212 161.916L246.917 156.312L248.174 155.977L247.355 162.557C247.325 162.801 247.297 163.051 247.271 163.306C247.243 163.556 247.223 163.803 247.212 164.049C247.206 164.287 247.206 164.517 247.214 164.739C247.226 164.954 247.252 165.15 247.292 165.327C247.38 165.721 247.553 166.009 247.809 166.189C248.071 166.368 248.42 166.399 248.856 166.283C249.236 166.182 249.582 166.002 249.896 165.743C250.216 165.482 250.511 165.14 250.782 164.717C251.058 164.286 251.314 163.772 251.553 163.176C251.79 162.574 252.022 161.885 252.25 161.109L252.515 160.203L252.772 160.307L252.516 161.211C252.275 162.063 252.026 162.811 251.768 163.455C251.515 164.092 251.238 164.638 250.939 165.093C250.643 165.541 250.316 165.904 249.958 166.181C249.605 166.451 249.207 166.644 248.766 166.762C248.42 166.853 248.102 166.88 247.812 166.843C247.528 166.809 247.274 166.719 247.049 166.573C246.83 166.425 246.644 166.226 246.492 165.976C246.34 165.726 246.226 165.432 246.151 165.094C246.101 164.871 246.067 164.626 246.048 164.358C246.029 164.085 246.028 163.8 246.046 163.505C245.812 164.252 245.572 164.909 245.327 165.477C245.081 166.039 244.818 166.521 244.536 166.923C244.254 167.325 243.943 167.651 243.602 167.899C243.268 168.145 242.894 168.323 242.48 168.433C242.135 168.525 241.817 168.552 241.526 168.514C241.243 168.481 240.991 168.39 240.772 168.242C240.548 168.096 240.359 167.898 240.207 167.648C240.055 167.397 239.941 167.103 239.865 166.766C239.799 166.469 239.762 166.133 239.756 165.759C239.745 165.387 239.763 164.988 239.812 164.563L240.632 157.984Z" fill="black"/>
<path d="M263.806 149.472L265.001 148.958L265.022 153.056C265.155 152.273 265.304 151.578 265.47 150.972C265.634 150.36 265.825 149.832 266.044 149.388C266.266 148.936 266.519 148.563 266.805 148.268C267.088 147.968 267.418 147.737 267.795 147.575C268.134 147.429 268.451 147.36 268.746 147.367C269.039 147.368 269.307 147.431 269.551 147.555C269.793 147.674 270.004 147.844 270.184 148.066C270.364 148.288 270.506 148.542 270.61 148.829C270.724 149.143 270.802 149.504 270.844 149.912C270.892 150.318 270.92 150.746 270.927 151.195C270.934 151.644 270.932 152.103 270.922 152.572C270.91 153.036 270.903 153.481 270.903 153.908C270.902 154.335 270.915 154.731 270.941 155.095C270.971 155.452 271.029 155.751 271.117 155.993C271.239 156.329 271.441 156.568 271.722 156.708C272.006 156.84 272.364 156.814 272.794 156.629C273.139 156.481 273.446 156.256 273.717 155.955C273.99 155.646 274.234 155.262 274.446 154.801C274.662 154.332 274.849 153.784 275.007 153.156C275.168 152.52 275.31 151.803 275.431 151.006L275.576 150.065L275.851 150.128L275.706 151.069C275.57 151.93 275.42 152.698 275.254 153.374C275.087 154.045 274.887 154.627 274.656 155.122C274.424 155.616 274.154 156.028 273.844 156.359C273.54 156.687 273.181 156.94 272.766 157.118C272.427 157.264 272.109 157.34 271.813 157.347C271.522 157.351 271.258 157.299 271.02 157.191C270.781 157.083 270.576 156.93 270.404 156.73C270.23 156.524 270.094 156.287 269.996 156.017C269.893 155.73 269.82 155.392 269.778 155.003C269.74 154.606 269.718 154.185 269.713 153.742C269.706 153.293 269.708 152.836 269.72 152.373C269.731 151.903 269.735 151.452 269.734 151.02C269.731 150.582 269.711 150.177 269.676 149.804C269.643 149.423 269.579 149.1 269.483 148.836C269.416 148.648 269.328 148.485 269.222 148.346C269.116 148.207 268.988 148.103 268.838 148.034C268.694 147.962 268.529 147.928 268.344 147.931C268.164 147.932 267.963 147.98 267.742 148.075C267.403 148.221 267.103 148.449 266.842 148.758C266.579 149.062 266.344 149.453 266.138 149.93C265.937 150.405 265.758 150.969 265.603 151.622C265.451 152.266 265.311 153.005 265.183 153.836L265.039 154.777L265.063 160.249L263.868 160.763L263.806 149.472Z" fill="black"/>
<path d="M286.153 137.774L287.262 137.094L288.175 143.731C288.21 143.977 288.247 144.228 288.288 144.484C288.325 144.736 288.371 144.982 288.423 145.224C288.478 145.458 288.538 145.681 288.602 145.895C288.669 146.101 288.744 146.285 288.828 146.446C289.013 146.805 289.254 147.035 289.549 147.135C289.844 147.235 290.181 147.169 290.561 146.936C290.896 146.731 291.182 146.457 291.418 146.113C291.655 145.769 291.848 145.353 291.997 144.864C292.148 144.367 292.26 143.795 292.333 143.147C292.406 142.499 292.447 141.764 292.457 140.943L292.469 140.031L291.698 134.376L292.807 133.696L293.721 140.333C293.755 140.579 293.793 140.83 293.833 141.086C293.871 141.338 293.916 141.584 293.969 141.826C294.024 142.06 294.084 142.283 294.148 142.497C294.215 142.703 294.29 142.887 294.373 143.048C294.559 143.407 294.797 143.639 295.087 143.742C295.382 143.842 295.722 143.774 296.107 143.538C296.441 143.333 296.725 143.06 296.956 142.72C297.193 142.376 297.386 141.96 297.535 141.471C297.686 140.974 297.798 140.402 297.871 139.754C297.941 139.101 297.985 138.364 298.003 137.545L298.021 136.588L298.293 136.617L298.282 137.569C298.271 138.466 298.227 139.265 298.148 139.964C298.071 140.656 297.948 141.265 297.78 141.793C297.615 142.313 297.397 142.758 297.128 143.128C296.862 143.491 296.533 143.791 296.144 144.03C295.839 144.217 295.544 144.332 295.258 144.377C294.979 144.425 294.715 144.409 294.463 144.33C294.217 144.247 293.989 144.106 293.78 143.905C293.571 143.704 293.387 143.45 293.229 143.143C293.124 142.94 293.028 142.711 292.942 142.455C292.853 142.194 292.779 141.917 292.72 141.625C292.689 142.418 292.631 143.126 292.544 143.747C292.455 144.364 292.328 144.908 292.164 145.379C291.999 145.85 291.787 146.254 291.527 146.591C291.272 146.926 290.963 147.204 290.598 147.428C290.293 147.615 289.998 147.73 289.712 147.775C289.434 147.823 289.171 147.805 288.925 147.723C288.674 147.644 288.444 147.504 288.235 147.303C288.026 147.102 287.842 146.848 287.683 146.541C287.543 146.27 287.422 145.954 287.32 145.591C287.214 145.232 287.129 144.838 287.066 144.411L286.153 137.774Z" fill="black"/>
<path d="M308.41 120.491L309.392 119.638L310.576 123.586C310.479 122.789 310.415 122.079 310.385 121.455C310.36 120.828 310.381 120.273 310.447 119.79C310.515 119.298 310.637 118.872 310.813 118.51C310.991 118.139 311.234 117.82 311.544 117.551C311.814 117.317 312.085 117.159 312.358 117.076C312.635 116.991 312.905 116.973 313.167 117.024C313.433 117.072 313.69 117.185 313.937 117.365C314.184 117.545 314.413 117.779 314.624 118.067C314.756 118.247 314.884 118.457 315.009 118.696C315.13 118.931 315.259 119.237 315.396 119.612C315.292 118.806 315.222 118.083 315.186 117.441C315.151 116.799 315.163 116.228 315.223 115.727C315.285 115.217 315.403 114.775 315.577 114.4C315.752 114.016 315.996 113.688 316.311 113.415C316.585 113.177 316.862 113.017 317.143 112.936C317.428 112.851 317.7 112.832 317.958 112.878C318.221 112.921 318.471 113.025 318.708 113.191C318.941 113.352 319.148 113.555 319.328 113.801C319.521 114.066 319.696 114.389 319.853 114.771C320.014 115.149 320.162 115.554 320.297 115.986C320.432 116.418 320.562 116.862 320.686 117.319C320.807 117.77 320.928 118.203 321.049 118.616C321.17 119.028 321.295 119.407 321.424 119.751C321.554 120.087 321.695 120.359 321.847 120.567C322.058 120.855 322.317 121.026 322.622 121.077C322.929 121.121 323.259 120.989 323.613 120.681C324.184 120.186 324.533 119.431 324.659 118.417C324.79 117.399 324.736 116.081 324.5 114.462L324.361 113.515L324.639 113.495L324.771 114.447C324.893 115.315 324.972 116.101 325.008 116.804C325.042 117.501 325.019 118.124 324.942 118.67C324.864 119.217 324.726 119.696 324.528 120.108C324.33 120.519 324.061 120.873 323.72 121.169C323.441 121.41 323.165 121.577 322.891 121.667C322.617 121.758 322.353 121.787 322.097 121.754C321.841 121.72 321.603 121.633 321.384 121.491C321.161 121.344 320.964 121.155 320.795 120.923C320.615 120.678 320.448 120.37 320.294 120.001C320.144 119.629 320.004 119.229 319.872 118.802C319.74 118.375 319.614 117.935 319.493 117.484C319.369 117.027 319.245 116.59 319.12 116.172C318.992 115.75 318.858 115.364 318.718 115.014C318.578 114.656 318.426 114.363 318.26 114.136C318.145 113.98 318.018 113.851 317.878 113.748C317.738 113.645 317.589 113.581 317.433 113.555C317.273 113.524 317.108 113.535 316.938 113.59C316.768 113.645 316.594 113.749 316.417 113.902C316.139 114.144 315.926 114.452 315.78 114.826C315.631 115.196 315.535 115.638 315.493 116.154C315.451 116.67 315.452 117.26 315.497 117.925C315.546 118.586 315.628 119.326 315.744 120.146L315.874 121.065L317.474 126.368L316.492 127.22L314.841 121.775C314.704 121.33 314.579 120.932 314.467 120.581C314.356 120.222 314.25 119.904 314.149 119.628C314.045 119.347 313.943 119.103 313.842 118.897C313.738 118.686 313.629 118.502 313.515 118.346C313.255 117.991 312.964 117.78 312.64 117.713C312.317 117.638 311.981 117.752 311.631 118.055C311.352 118.297 311.138 118.603 310.989 118.972C310.844 119.338 310.748 119.776 310.703 120.287C310.657 120.798 310.658 121.389 310.707 122.058C310.756 122.719 310.84 123.466 310.957 124.299L311.09 125.251L312.674 130.532L311.692 131.385L308.41 120.491Z" fill="black"/>
<path d="M335.549 105.331C335.236 104.723 334.992 104.125 334.815 103.536C334.634 102.944 334.51 102.375 334.443 101.829C334.379 101.279 334.364 100.757 334.398 100.263C334.435 99.765 334.509 99.3061 334.617 98.8867C334.725 98.4587 334.863 98.0725 335.031 97.7283C335.202 97.3795 335.391 97.0819 335.598 96.8352C335.813 96.5796 336.03 96.4038 336.248 96.3078C336.462 96.2077 336.678 96.1723 336.898 96.2016C337.117 96.2222 337.339 96.3032 337.563 96.4445C337.783 96.5817 338.006 96.762 338.23 96.9854L337.306 95.0628L338.143 94.0672L341.057 100.127C341.166 100.351 341.28 100.579 341.397 100.812C341.51 101.04 341.629 101.261 341.753 101.476C341.878 101.682 342.003 101.878 342.13 102.062C342.257 102.238 342.385 102.39 342.513 102.518C342.8 102.804 343.096 102.951 343.402 102.959C343.711 102.963 344.011 102.792 344.302 102.446C344.554 102.146 344.737 101.797 344.851 101.399C344.968 100.996 345.021 100.538 345.011 100.025C345 99.5025 344.929 98.9203 344.797 98.2782C344.662 97.6319 344.476 96.9144 344.239 96.1258L343.954 95.2117L344.225 95.148L344.504 96.0688C344.764 96.9299 344.965 97.7072 345.106 98.4007C345.247 99.0856 345.322 99.7043 345.33 100.257C345.335 100.805 345.269 101.296 345.133 101.73C344.997 102.163 344.782 102.555 344.488 102.905C344.258 103.178 344.015 103.381 343.759 103.513C343.511 103.645 343.256 103.712 342.994 103.715C342.736 103.714 342.478 103.649 342.218 103.523C341.959 103.396 341.707 103.21 341.462 102.966C341.3 102.805 341.139 102.615 340.979 102.398C340.814 102.176 340.657 101.933 340.506 101.667C340.925 103.165 341.121 104.428 341.095 105.457C341.064 106.482 340.8 107.291 340.303 107.883C340.069 108.161 339.823 108.353 339.566 108.459C339.309 108.557 339.044 108.586 338.772 108.546C338.497 108.502 338.222 108.397 337.949 108.232C337.672 108.063 337.399 107.844 337.129 107.575C336.838 107.285 336.56 106.95 336.293 106.568C336.022 106.183 335.774 105.771 335.549 105.331ZM340.195 107.33C340.399 107.088 340.548 106.784 340.643 106.417C340.734 106.045 340.781 105.635 340.785 105.186C340.789 104.728 340.752 104.246 340.674 103.739C340.592 103.229 340.483 102.715 340.345 102.199C340.207 101.674 340.045 101.158 339.86 100.652C339.676 100.146 339.476 99.6713 339.262 99.2272C339.048 98.7744 338.824 98.3696 338.59 98.0127C338.356 97.6472 338.123 97.3486 337.89 97.1169C337.679 96.9059 337.478 96.7592 337.288 96.6769C337.097 96.5859 336.919 96.544 336.752 96.5513C336.586 96.55 336.433 96.5913 336.294 96.6751C336.158 96.7545 336.038 96.857 335.932 96.9825C335.721 97.2337 335.558 97.5864 335.443 98.0406C335.328 98.4862 335.283 99.0151 335.31 99.6273C335.333 100.235 335.438 100.917 335.626 101.674C335.814 102.421 336.101 103.223 336.487 104.079C336.812 104.79 337.143 105.412 337.48 105.946C337.821 106.476 338.134 106.883 338.42 107.168C338.744 107.491 339.058 107.676 339.361 107.723C339.664 107.762 339.942 107.631 340.195 107.33ZM333.407 96.1344C333.262 95.9896 333.177 95.8184 333.153 95.6208C333.132 95.4187 333.18 95.2481 333.297 95.1091C333.414 94.9701 333.566 94.9029 333.752 94.9077C333.935 94.9083 334.099 94.9811 334.244 95.1259C334.389 95.2707 334.468 95.4443 334.481 95.6467C334.498 95.8447 334.447 96.0132 334.331 96.1522C334.214 96.2912 334.068 96.3603 333.893 96.3593C333.715 96.3542 333.553 96.2792 333.407 96.1344ZM335.183 94.0221C335.038 93.8773 334.955 93.7039 334.934 93.5018C334.914 93.2997 334.96 93.1313 335.073 92.9968C335.194 92.8533 335.345 92.7862 335.528 92.7954C335.711 92.796 335.875 92.8688 336.02 93.0136C336.165 93.1584 336.246 93.3298 336.263 93.5277C336.279 93.7257 336.229 93.8942 336.112 94.0332C335.995 94.1722 335.848 94.2435 335.669 94.247C335.491 94.2419 335.329 94.1669 335.183 94.0221Z" fill="black"/>
<path d="M351.53 82.9345C351.159 82.0765 350.868 81.3271 350.657 80.6864C350.445 80.0457 350.309 79.4815 350.249 78.9937C350.192 78.501 350.205 78.0661 350.289 77.6888C350.376 77.3067 350.53 76.9459 350.749 76.6064C351.112 76.0454 351.512 75.7118 351.949 75.6056C352.39 75.4944 352.843 75.6171 353.308 75.9736C353.698 76.2731 353.987 76.6492 354.174 77.1019C354.365 77.5496 354.454 78.0563 354.443 78.6219C354.438 78.802 354.42 78.9908 354.39 79.1883C354.363 79.3809 354.321 79.5957 354.266 79.8326C354.21 80.0695 354.14 80.3327 354.057 80.6224C353.97 80.9085 353.862 81.2308 353.735 81.5894L353.763 81.6107C354.191 81.0341 354.618 80.6696 355.043 80.5173C355.472 80.3602 355.854 80.4099 356.188 80.6666C356.337 80.7807 356.475 80.9272 356.603 81.1062C356.726 81.2815 356.849 81.4678 356.972 81.665C357.098 81.8574 357.23 82.0465 357.367 82.2326C357.499 82.4151 357.647 82.5687 357.809 82.6935C358.093 82.911 358.385 82.9915 358.686 82.9351C358.987 82.8787 359.258 82.6635 359.5 82.2896C359.694 81.9894 359.821 81.6418 359.882 81.2468C359.943 80.8517 359.938 80.4025 359.867 79.8991C359.791 79.3922 359.649 78.8269 359.44 78.2031C359.23 77.5709 358.951 76.8675 358.603 76.093L358.21 75.2172L358.471 75.1196L358.865 75.9954C359.278 76.9158 359.599 77.7212 359.827 78.4115C360.051 79.0982 360.189 79.7122 360.242 80.2536C360.294 80.7865 360.268 81.263 360.163 81.6832C360.058 82.1033 359.882 82.5053 359.634 82.8891C359.487 83.1154 359.327 83.3159 359.151 83.4905C358.98 83.6686 358.797 83.8007 358.603 83.8869C358.408 83.973 358.201 84.0022 357.983 83.9745C357.764 83.9468 357.536 83.842 357.299 83.6601C357.113 83.5175 356.941 83.3485 356.782 83.1531C356.622 82.9493 356.47 82.7483 356.327 82.5502C356.182 82.3436 356.04 82.1497 355.899 81.9686C355.762 81.7826 355.619 81.6325 355.471 81.5184C355.182 81.2974 354.861 81.235 354.507 81.3312C354.152 81.4275 353.801 81.7286 353.453 82.2346L353.418 82.2078C353.617 81.5878 353.749 80.9969 353.813 80.4352C353.881 79.8686 353.886 79.3541 353.831 78.8918C353.714 77.9856 353.34 77.29 352.707 76.8051C351.954 76.2275 351.339 76.3077 350.862 77.0458C350.674 77.3361 350.554 77.6714 350.503 78.0517C350.451 78.4235 350.485 78.8916 350.607 79.4561C350.724 80.017 350.935 80.6973 351.239 81.4969C351.545 82.2915 351.96 83.2533 352.482 84.3822L355.483 89.0019L354.777 90.0943L345.809 76.3402L346.52 75.2405L351.53 82.9345Z" fill="black"/>
<path d="M359.733 64.008L360.327 62.8507L364.559 68.0434C364.717 68.2352 364.88 68.43 365.048 68.6279C365.21 68.8227 365.377 69.0098 365.548 69.189C365.716 69.3599 365.884 69.52 366.05 69.6692C366.215 69.8101 366.374 69.9278 366.529 70.0223C366.875 70.2325 367.198 70.3062 367.5 70.2434C367.804 70.1755 368.059 69.9408 368.265 69.5394C368.444 69.1901 368.544 68.8097 368.565 68.3982C368.588 67.9814 368.537 67.5257 368.409 67.031C368.28 66.5281 368.078 65.981 367.803 65.3897C367.524 64.7954 367.178 64.1438 366.767 63.4351L366.285 62.6081L366.536 62.4838L367.018 63.3108C367.468 64.0843 367.842 64.7904 368.138 65.4291C368.432 66.0595 368.644 66.6438 368.775 67.1819C368.904 67.7118 368.951 68.2023 368.917 68.6534C368.882 69.1044 368.761 69.5333 368.552 69.9399C368.389 70.2579 368.197 70.5104 367.976 70.6975C367.763 70.8825 367.53 71.004 367.277 71.062C367.021 71.1252 366.751 71.1255 366.468 71.0626C366.185 70.9998 365.896 70.8785 365.601 70.6988C365.34 70.5404 365.073 70.3328 364.797 70.0762C364.519 69.8248 364.242 69.5329 363.966 69.2007L359.733 64.008ZM358.088 62.1852C357.912 62.0786 357.794 61.9246 357.733 61.7234C357.675 61.5169 357.693 61.3224 357.786 61.14C357.88 60.9575 358.022 60.8418 358.211 60.7929C358.398 60.7357 358.579 60.7604 358.754 60.867C358.839 60.9188 358.913 60.9873 358.974 61.0725C359.033 61.1495 359.074 61.236 359.097 61.3321C359.122 61.4229 359.131 61.5207 359.124 61.6255C359.114 61.7219 359.084 61.8171 359.036 61.9109C358.943 62.0934 358.806 62.2121 358.627 62.2671C358.442 62.3191 358.263 62.2918 358.088 62.1852Z" fill="black"/>
</svg>
